<?xml version="1.0" standalone="no"?>
<!DOCTYPE svg PUBLIC "-//W3C//DTD SVG 20010904//EN"
 "http://www.w3.org/TR/2001/REC-SVG-20010904/DTD/svg10.dtd">
<svg version="1.0" xmlns="http://www.w3.org/2000/svg"
 width="576.000000pt" height="432.000000pt" viewBox="0 0 576.000000 432.000000"
 preserveAspectRatio="xMidYMid meet">

<g transform="translate(0.000000,432.000000) scale(0.100000,-0.100000)"
fill="#000000" stroke="none">
<path d="M275 4313 c-21 -4 -48 -15 -104 -42 -50 -24 -107 -86 -138 -149 l-28
-57 0 -1905 0 -1905 26 -55 c37 -80 81 -125 157 -162 l67 -33 667 -3 c373 -1
668 1 668 6 0 5 -3 12 -7 16 -4 4 -6 22 -5 41 2 18 -1 36 -7 40 -15 9 -14 45
1 45 6 0 22 -9 34 -21 17 -16 36 -21 80 -21 55 -1 61 -3 101 -44 24 -23 43
-47 43 -53 0 -6 21 -11 49 -11 l50 0 -14 34 c-8 19 -11 37 -6 40 9 6 135 28
161 28 8 0 46 -11 84 -26 71 -27 182 -36 202 -17 9 9 82 38 116 46 10 2 18 -4
21 -16 4 -14 -1 -21 -18 -25 -13 -3 -31 -15 -41 -25 -12 -14 -20 -16 -25 -8
-9 16 -39 4 -39 -16 0 -13 50 -15 426 -15 260 0 423 4 419 9 -10 18 16 23 34
7 22 -20 59 -21 81 -1 15 14 20 14 46 0 31 -16 64 -20 64 -7 -1 14 -27 42 -40
42 -7 0 -10 7 -6 16 5 13 1 15 -23 12 -20 -3 -32 1 -40 13 -6 10 -19 16 -30
14 -14 -2 -18 1 -14 11 4 10 -3 14 -23 14 l-29 1 25 19 c14 11 34 28 45 38 11
11 43 34 70 52 108 71 159 161 100 176 -23 6 -36 24 -16 24 5 0 9 11 9 25 0
13 -5 23 -11 22 -5 -1 -12 4 -14 11 -3 7 4 12 16 12 11 0 23 5 26 10 8 13 -11
13 -33 1 -13 -7 -23 -3 -40 14 -21 22 -21 23 -2 18 11 -3 20 -9 20 -14 0 -5 4
-9 9 -9 12 0 1 43 -13 52 -8 5 -7 13 1 27 9 15 10 22 1 27 -7 4 -8 3 -4 -4 4
-7 2 -12 -3 -12 -6 0 -11 6 -11 13 0 8 -18 22 -39 32 -35 15 -38 19 -25 32 17
17 18 55 3 70 -6 6 -13 25 -15 41 -3 25 0 29 15 25 9 -2 23 3 30 11 8 9 24 16
37 16 14 0 24 6 24 14 0 26 -18 28 -64 8 l-43 -20 -7 51 c-3 31 -1 56 5 62 7
7 8 2 4 -16 -4 -18 -2 -26 7 -26 7 0 20 -3 28 -7 10 -4 19 3 27 19 10 22 8 27
-8 36 -16 8 -17 14 -8 30 6 13 18 19 28 16 14 -3 17 3 17 32 -1 26 4 37 17 39
10 2 17 -3 17 -12 0 -9 9 -16 21 -16 13 0 18 4 13 12 -4 7 -3 8 4 4 20 -12 14
-21 -22 -34 -26 -10 -34 -18 -32 -36 0 -13 5 -22 10 -19 4 3 12 -1 17 -8 8
-11 12 -10 25 6 8 11 17 31 21 45 3 14 12 31 21 37 9 7 11 13 5 13 -6 0 -10 8
-9 18 1 11 -6 16 -17 15 -15 -1 -18 4 -14 22 2 15 -1 26 -10 29 -11 5 -11 10
3 31 9 14 13 25 8 25 -4 0 -3 5 4 12 16 16 50 17 56 1 3 -7 -1 -13 -11 -13
-12 0 -13 -3 -3 -15 7 -8 9 -22 6 -31 -4 -10 -1 -14 6 -11 7 2 12 15 10 28 -1
13 2 31 8 39 9 13 11 13 19 0 5 -8 8 -17 5 -21 -2 -4 1 -11 8 -15 8 -5 6 -10
-8 -15 -17 -7 -17 -8 -1 -8 26 -1 24 -71 -2 -78 -16 -4 -18 -11 -14 -46 7 -50
7 -50 30 -43 13 4 19 18 21 48 1 23 8 46 15 50 9 6 8 10 -3 18 -8 5 -10 10 -4
10 19 0 42 -44 49 -94 5 -31 10 -43 16 -35 6 10 10 9 15 -6 4 -11 12 -23 18
-27 13 -8 -1 -25 -24 -30 -8 -2 -21 -9 -28 -15 -7 -7 -22 -13 -33 -13 -11 0
-17 -4 -14 -10 3 -5 -1 -10 -10 -10 -9 0 -14 -4 -11 -9 4 -5 -6 -18 -21 -29
-16 -11 -24 -24 -20 -28 4 -5 12 -3 16 5 6 10 10 9 15 -4 10 -28 7 -37 -13
-30 -32 10 -32 -10 -1 -34 17 -12 30 -28 30 -36 0 -8 7 -16 15 -16 8 -1 21 -2
28 -3 6 -1 16 3 20 9 5 6 6 -1 3 -15 -4 -22 -4 -23 8 -7 15 19 27 23 23 6 -1
-6 6 -13 16 -14 9 -2 17 1 17 6 0 6 5 7 11 3 8 -5 10 3 5 27 -20 97 -20 95 13
118 17 12 31 28 31 36 0 7 7 12 15 11 25 -4 55 -34 55 -55 0 -11 6 -24 13 -28
6 -4 18 -23 24 -42 11 -30 10 -36 -5 -47 -9 -7 -22 -14 -28 -14 -15 0 -49 -39
-41 -47 4 -3 -2 -12 -13 -20 -24 -17 -60 -2 -60 25 0 10 -3 13 -8 6 -4 -6 -16
-15 -26 -21 -19 -10 -19 -12 6 -34 28 -27 36 -45 47 -106 7 -37 5 -46 -14 -67
-13 -14 -21 -27 -19 -29 2 -2 -3 -4 -11 -4 -9 0 -14 6 -11 14 3 8 2 12 -2 9
-13 -8 -13 -75 -1 -97 13 -24 79 -26 114 -3 15 10 25 12 25 5 0 -6 -5 -11 -12
-11 -6 0 -8 -3 -5 -6 4 -4 13 -1 22 6 8 7 15 9 15 5 0 -4 6 -2 14 4 20 17 49
0 75 -44 22 -37 28 -75 12 -75 -5 0 -17 -21 -26 -47 -10 -27 -21 -59 -26 -73
-5 -14 -23 -34 -39 -45 -17 -11 -30 -28 -30 -38 0 -16 9 -18 89 -16 68 1 88 5
85 14 -8 20 13 27 38 14 13 -6 20 -8 16 -4 -4 4 -3 16 3 26 6 13 6 19 -1 19
-5 0 -10 5 -10 10 0 14 38 12 42 -2 3 -7 13 -3 27 11 19 19 21 25 10 33 -11 8
-11 9 1 5 8 -2 23 0 33 5 9 5 17 5 17 1 0 -11 -47 -82 -73 -111 l-21 -23 685
3 684 3 67 33 c76 37 120 82 157 162 l26 55 3 715 c1 473 -1 710 -8 700 -8
-12 -10 -11 -10 6 0 17 -8 23 -32 27 -18 2 -35 0 -36 -4 -2 -5 -34 -6 -70 -3
l-67 7 25 -20 c14 -12 34 -22 45 -25 16 -3 20 -11 19 -43 -2 -100 -25 -185
-49 -185 -13 0 -47 -139 -44 -175 4 -37 -1 -55 -15 -55 -16 0 -17 -51 -1 -62
5 -4 -2 -8 -17 -8 -16 0 -28 -6 -29 -12 -3 -81 -13 -146 -25 -162 -8 -11 -14
-28 -14 -37 0 -9 -7 -22 -15 -29 -14 -12 -13 -16 10 -40 26 -27 26 -27 8 -64
-14 -30 -22 -36 -43 -34 -16 2 -33 -6 -50 -22 -14 -14 -22 -21 -17 -16 13 17
8 56 -7 56 -8 0 -15 8 -15 18 0 9 -3 31 -7 49 -3 18 -1 46 4 62 7 19 7 33 1
36 -5 4 -9 1 -9 -5 0 -6 -7 -22 -16 -35 -14 -21 -19 -23 -37 -12 -12 7 -27 19
-34 27 -14 17 -14 17 -17 -32 -1 -24 3 -38 11 -38 6 0 15 -9 18 -20 4 -11 10
-18 15 -15 12 8 41 -6 34 -16 -3 -6 0 -16 6 -24 10 -12 8 -15 -11 -15 -30 1
-73 35 -63 51 5 8 2 10 -9 6 -36 -14 -88 -19 -100 -9 -6 5 -36 15 -65 22 -65
15 -88 44 -42 54 19 3 30 12 30 22 0 14 3 14 16 4 12 -11 15 -11 12 -1 -2 8 4
15 13 16 9 2 28 13 43 26 23 20 24 24 11 39 -13 14 -11 17 20 29 19 7 35 17
35 22 0 14 38 49 42 38 4 -11 68 45 68 60 0 5 8 11 17 13 16 3 16 4 0 20 -22
22 -22 32 1 23 13 -5 14 -3 5 6 -15 15 -6 37 29 73 l28 28 1 -23 c1 -13 0 -28
-1 -34 -2 -9 -6 -33 -9 -57 -1 -3 -9 -9 -18 -12 -10 -2 -7 -4 7 -3 14 2 24 8
23 15 -2 6 2 12 8 12 6 0 9 9 6 19 -3 12 1 22 10 26 14 5 14 7 0 23 -9 10 -19
42 -23 72 -3 30 -10 56 -15 58 -5 2 -9 13 -9 24 0 14 -5 18 -16 14 -12 -5 -15
-2 -10 10 5 13 1 15 -19 12 -20 -4 -26 -1 -31 18 -3 13 -10 24 -14 24 -16 0
-22 -22 -11 -33 17 -17 13 -26 -9 -20 -15 4 -20 0 -21 -13 0 -11 -5 -3 -11 16
-5 19 -14 38 -19 41 -5 3 -7 13 -3 22 3 9 10 14 15 12 11 -7 51 33 44 45 -3 5
8 8 24 8 17 -1 37 4 45 11 10 8 16 9 21 1 10 -17 25 -11 25 10 0 11 6 19 13
17 8 -1 13 15 15 51 l3 52 37 2 c20 1 46 2 57 2 11 1 25 4 32 9 6 4 18 4 27 1
21 -8 34 28 31 81 -2 22 0 45 3 50 7 10 8 15 11 35 0 5 19 27 41 50 21 22 35
40 30 40 -6 0 -10 7 -10 15 0 8 5 14 11 12 12 -2 30 47 24 66 -2 7 -6 24 -9
39 -5 20 -11 26 -27 23 -11 -2 -31 1 -44 7 -19 8 -27 7 -40 -6 -9 -9 -23 -16
-30 -16 -8 0 -18 -8 -24 -17 -5 -10 -18 -18 -28 -18 -11 0 -18 -7 -18 -19 0
-11 -6 -21 -12 -23 -18 -6 -16 32 2 47 9 8 12 18 7 29 -9 18 -8 47 3 74 6 14
2 17 -19 17 -18 0 -29 7 -35 23 -5 12 -8 23 -6 25 1 1 39 9 85 17 84 15 104
12 129 -19 11 -13 17 -10 43 19 l30 35 -15 60 c-17 67 -56 123 -44 63 5 -26 3
-31 -8 -26 -11 4 -13 1 -9 -11 5 -12 0 -19 -16 -23 -16 -4 -18 -8 -8 -14 10
-7 10 -9 -2 -9 -9 0 -21 5 -28 12 -15 15 -42 19 -42 7 0 -5 -4 -9 -10 -9 -5 0
-9 3 -8 8 5 14 -30 54 -37 43 -3 -6 -11 -8 -17 -5 -6 4 -14 0 -19 -7 -8 -12
-11 -11 -20 4 -5 9 -17 17 -25 17 -12 0 -12 4 -4 20 10 18 7 20 -22 21 -18 1
-25 3 -16 6 10 2 15 10 11 19 -3 8 0 14 6 14 6 0 11 7 11 15 0 8 9 15 20 15
14 0 18 5 13 17 -5 12 -2 15 9 11 12 -5 15 0 13 25 -1 20 -8 33 -19 35 -9 2
-16 13 -16 27 0 18 6 24 28 27 25 3 27 6 24 48 -2 25 -4 60 -5 78 -2 36 -16
43 -24 12 -6 -24 -21 -26 -30 -5 -6 18 58 85 82 85 18 0 19 12 3 28 -17 17
-38 15 -38 -4 0 -10 -7 -14 -21 -12 -19 3 -22 10 -25 64 -2 57 -1 63 19 68 21
5 20 7 -14 30 -32 22 -50 45 -53 67 -1 4 -13 19 -29 34 -15 15 -27 34 -27 41
0 8 -6 14 -12 14 -9 0 -8 3 2 10 12 7 11 9 -6 8 -16 -2 -21 -9 -22 -29 0 -20
3 -26 14 -22 11 4 12 0 5 -18 -4 -13 -15 -24 -22 -25 -13 -1 -40 -10 -64 -22
-5 -3 -4 1 3 9 6 7 12 23 12 36 0 13 6 23 13 23 8 0 8 3 -2 9 -12 8 -12 12 -2
24 10 12 9 17 -2 24 -8 4 -17 15 -20 23 -3 8 -6 -4 -6 -26 -1 -64 -12 -104
-28 -104 -8 0 -12 -4 -9 -8 3 -5 -1 -20 -9 -35 -7 -14 -11 -28 -7 -31 3 -3 0
-6 -6 -6 -7 0 -12 5 -12 12 0 6 -3 8 -6 5 -4 -4 -1 -14 7 -23 13 -16 12 -17
-8 -12 -13 4 -23 2 -23 -3 0 -5 -7 -9 -17 -9 -12 0 -11 -5 9 -22 14 -13 31
-38 38 -55 7 -18 16 -33 21 -33 13 0 11 -26 -4 -38 -7 -6 -24 -13 -37 -15 -14
-3 -36 -8 -50 -11 -21 -6 -30 0 -54 30 -16 20 -37 64 -47 97 -23 76 -23 70 1
64 31 -8 13 10 -28 30 -20 9 -47 23 -60 31 -22 14 -22 15 -4 28 15 10 27 10
58 1 39 -12 58 -37 28 -37 -8 0 -12 -4 -9 -10 11 -18 60 -11 73 11 11 17 11
23 0 37 -11 14 -10 15 5 9 10 -4 21 -7 23 -7 2 0 4 -6 4 -14 0 -8 4 -18 10
-21 6 -4 7 1 4 12 -5 15 -4 15 4 3 8 -10 7 -19 -1 -29 -9 -12 -9 -13 0 -7 8 4
13 1 13 -8 0 -25 13 -19 32 14 16 28 13 36 -14 31 -5 0 -8 3 -8 8 0 17 25 19
42 3 10 -8 18 -10 18 -4 0 6 -18 19 -41 28 -24 11 -49 32 -62 54 -11 19 -28
40 -37 47 -23 18 -7 24 29 12 24 -9 29 -14 21 -24 -8 -10 -8 -15 1 -21 7 -4
17 0 25 10 11 16 13 16 19 -4 8 -25 -2 -40 -14 -21 -6 9 -11 10 -15 2 -4 -6
-1 -17 5 -24 11 -11 16 -11 30 2 10 8 16 18 13 23 -3 4 -1 8 5 8 5 0 13 -5 16
-10 3 -6 11 -10 17 -10 15 0 -73 80 -100 91 -14 5 -20 14 -16 21 5 7 2 9 -9 5
-9 -3 -18 1 -22 10 -9 24 9 37 34 24 18 -10 21 -9 21 6 0 12 9 7 34 -20 19
-21 37 -44 40 -52 6 -18 26 -20 26 -3 0 6 -8 20 -17 31 -17 19 -17 20 4 8 32
-16 42 -14 35 11 -3 14 -2 19 6 14 15 -9 16 18 3 43 -8 13 -4 24 16 45 30 32
24 47 -7 16 -11 -11 -24 -19 -28 -16 -4 2 -5 -16 -3 -40 3 -42 -9 -58 -24 -33
-4 5 -18 15 -32 20 -21 8 -24 14 -20 38 5 25 4 28 -19 23 -21 -4 -23 -7 -12
-21 12 -14 11 -14 -4 -2 -10 7 -16 17 -13 21 3 5 0 10 -7 12 -8 3 -12 21 -11
46 2 44 -11 57 -22 22 -6 -19 -7 -19 -43 1 -20 12 -45 28 -55 37 -16 14 -16
17 -2 24 22 13 18 36 -7 40 -14 2 -22 9 -20 18 2 8 0 12 -3 8 -4 -4 -16 -3
-26 3 -15 7 -17 6 -13 -5 4 -11 0 -13 -15 -9 -29 7 -37 23 -12 23 11 0 27 8
37 17 16 16 19 16 53 -3 26 -14 45 -18 64 -13 16 4 27 3 27 -2 0 -6 8 -9 18
-7 17 3 63 -34 61 -49 0 -4 4 -9 10 -11 21 -7 11 15 -22 50 -18 19 -31 40 -29
46 4 13 -44 64 -78 82 -15 8 -50 13 -87 12 -50 -2 -72 2 -112 23 -27 15 -52
33 -55 41 -4 10 -13 13 -31 8 -17 -4 -25 -2 -25 7 0 11 -2 11 -10 -1 -5 -8
-11 -12 -12 -10 -21 28 -38 63 -38 80 0 11 -7 20 -15 20 -17 0 -37 34 -27 45
4 5 1 5 -5 1 -9 -5 -13 2 -13 23 0 21 -5 31 -16 31 -10 0 -14 -7 -12 -22 2
-11 -3 -23 -9 -25 -7 -3 -13 2 -13 11 0 12 -5 13 -22 7 -15 -5 -33 -1 -62 15
-29 16 -45 20 -57 13 -12 -6 -20 -5 -24 2 -4 6 -13 8 -21 5 -8 -3 -14 -1 -14
5 0 6 -16 9 -37 7 -34 -3 -37 -1 -46 32 -5 19 -13 41 -19 48 -8 9 -6 12 6 12
14 0 13 5 -5 33 -24 36 -60 57 -95 57 -13 0 -26 5 -30 11 -3 6 -17 8 -31 4
-27 -6 -63 17 -63 41 0 7 -9 12 -20 11 -22 -1 -26 -12 -7 -21 19 -9 -85 6
-111 15 -33 12 -816 9 -823 -3 -5 -7 -18 -7 -40 0 -43 14 -110 13 -126 0 -9
-7 -13 -7 -13 1 0 6 -17 11 -40 11 -44 0 -50 -11 -21 -37 21 -18 19 -33 -5
-33 -8 0 -14 9 -14 19 0 12 -9 23 -22 27 -13 4 -26 11 -29 16 -3 5 -12 2 -19
-7 -10 -12 -10 -15 3 -15 16 0 13 -35 -5 -46 -17 -11 -38 17 -28 36 13 24 13
40 -1 40 -5 0 -7 -5 -4 -10 4 -6 -5 -24 -19 -40 -13 -17 -27 -26 -30 -21 -7
11 -96 11 -96 0 0 -5 -5 -9 -10 -9 -6 0 -9 5 -8 12 5 20 -30 20 -51 -1 -33
-33 -60 -44 -77 -30 -8 6 -17 9 -21 5 -3 -3 -11 4 -18 17 -7 14 -8 24 -1 29
12 8 18 40 6 33 -5 -3 -11 -1 -15 5 -4 6 -59 10 -137 10 -126 0 -132 -1 -153
-24 -13 -14 -20 -27 -17 -31 3 -3 -11 -3 -31 -1 -31 4 -40 1 -54 -20 -38 -59
-113 -45 -113 20 0 18 -5 37 -12 44 -13 13 -188 17 -188 5 0 -5 14 -24 31 -43
17 -19 37 -50 45 -69 8 -20 21 -42 29 -51 15 -16 75 -125 75 -136 0 -3 -6 -4
-12 -2 -13 5 -40 -24 -51 -54 -3 -10 -13 -18 -21 -18 -8 0 -22 -7 -30 -16 -15
-14 -16 -13 -16 12 0 15 8 36 18 47 16 19 16 19 -8 12 -35 -10 -47 -22 -54
-50 -6 -24 -56 -86 -56 -69 0 5 -4 2 -9 -5 -6 -9 -25 -15 -45 -15 -30 0 -35
-3 -30 -18 6 -21 -6 -24 -24 -6 -10 10 -19 5 -42 -20 -16 -18 -35 -32 -42 -32
-16 0 -38 -45 -38 -79 0 -24 -1 -24 -14 -5 -8 10 -11 20 -7 22 5 1 6 14 3 28
-4 25 -23 28 -64 10 -9 -4 -22 -5 -28 -1 -5 3 -10 2 -10 -4 0 -9 9 -19 44 -49
12 -9 13 -18 6 -38 -13 -34 -13 -39 5 -24 25 20 19 -10 -7 -37 -19 -20 -20
-25 -8 -33 8 -5 23 -7 33 -4 10 3 17 0 17 -7 0 -7 6 -5 14 6 13 18 14 18 25
-3 16 -29 8 -40 -24 -34 -18 3 -25 0 -25 -11 0 -10 -7 -15 -20 -12 -27 5 -40
14 -40 26 0 6 4 8 9 4 5 -3 12 -1 15 4 9 13 -14 25 -25 14 -12 -12 -69 -4 -69
9 0 6 7 7 16 4 17 -7 60 18 68 40 4 11 0 13 -19 8 -15 -4 -25 -2 -25 4 0 6
-10 14 -22 18 -32 10 -57 45 -54 76 2 19 -2 28 -16 32 -19 4 -19 6 -4 28 21
29 20 48 -1 48 -17 1 -17 1 0 14 24 19 21 23 -13 18 -16 -2 -49 2 -72 10 -50
16 -88 13 -88 -8 0 -10 7 -13 25 -8 51 13 105 -23 60 -40 -8 -3 -15 -1 -15 5
0 17 -49 -22 -49 -39 -1 -9 -3 -33 -7 -53 -5 -29 -2 -40 13 -50 14 -11 18 -27
19 -66 0 -29 -4 -53 -8 -53 -4 0 -14 -13 -22 -29 -9 -16 -22 -28 -30 -27 -8 0
-16 -3 -18 -8 -2 -5 9 -10 25 -10 15 -1 27 2 27 6 0 4 7 5 15 2 8 -4 15 -15
15 -25 0 -11 7 -22 15 -25 19 -8 19 -34 1 -59 -8 -12 -19 -16 -31 -12 -14 6
-15 10 -4 23 11 13 10 17 -3 25 -69 38 -99 95 -58 106 31 8 24 21 -20 33 -39
10 -55 30 -25 30 19 0 19 14 0 33 -8 8 -12 17 -9 20 3 2 -2 7 -11 11 -9 3 -14
2 -11 -2 4 -7 -3 -8 -46 -3 -4 1 -5 8 -1 17 3 10 -6 25 -27 42 -61 50 -73 62
-67 63 24 5 33 4 38 -4 6 -8 57 37 92 81 19 24 22 36 8 27 -5 -3 -12 -1 -16 5
-3 5 3 10 14 10 12 0 21 7 21 15 0 8 5 15 11 15 5 0 8 4 4 9 -3 5 4 12 15 16
11 3 42 30 69 58 59 61 75 58 30 -6 -41 -59 -36 -89 19 -105 22 -7 49 -12 60
-12 24 0 38 16 20 23 -10 3 -10 7 -1 17 9 10 17 8 41 -8 18 -14 37 -19 51 -15
17 4 19 8 9 14 -10 7 -9 9 4 9 16 0 68 41 68 53 0 3 -9 3 -20 0 -14 -4 -20 0
-20 11 0 9 -5 16 -12 16 -9 0 -9 3 0 12 7 7 12 21 12 32 0 16 -3 17 -12 8 -18
-18 -45 -14 -51 7 -3 13 3 23 19 32 30 16 31 39 2 39 l-22 0 23 16 c24 17 76
33 123 39 15 2 35 10 43 19 9 9 21 17 26 17 5 1 12 2 17 4 51 14 62 19 62 27
0 5 8 8 17 6 10 -2 18 3 18 10 0 7 23 23 50 36 l50 24 -600 0 c-330 0 -609 -2
-620 -5z m2852 -16 c15 -1 19 -5 13 -13 -11 -13 -48 -13 -69 0 -11 7 -13 5 -8
-6 7 -19 -33 -34 -44 -17 -7 12 -89 -7 -89 -21 0 -15 -31 -41 -42 -34 -12 7
30 54 49 54 7 0 12 5 11 12 -3 14 104 38 137 31 11 -2 30 -5 42 -6z m-337 -16
c0 -13 60 -32 74 -24 8 5 8 3 0 -8 -15 -19 -14 -49 3 -49 7 0 13 -4 13 -10 0
-5 7 -10 15 -10 8 0 23 -10 35 -22 11 -12 20 -16 20 -10 0 7 11 12 24 12 36 0
55 10 50 25 -7 17 12 28 36 20 28 -9 26 -35 -2 -28 -18 4 -12 -5 27 -46 35
-37 57 -51 76 -51 44 0 79 -48 79 -106 0 -14 4 -23 9 -20 5 3 14 -1 21 -9 10
-12 10 -18 -1 -32 -9 -10 -15 -46 -16 -97 -1 -45 -3 -90 -4 -101 -1 -11 2 -29
6 -39 6 -14 5 -17 -3 -12 -7 4 -12 1 -12 -8 0 -8 4 -17 9 -20 5 -3 19 -25 31
-48 19 -37 20 -46 9 -85 -6 -24 -9 -46 -5 -50 3 -3 1 -12 -5 -19 -9 -11 -16
-10 -36 6 -14 11 -36 20 -49 20 -12 0 -24 5 -26 11 -3 9 -10 9 -26 0 -18 -10
-22 -9 -22 4 0 8 -9 15 -21 15 -14 0 -18 -4 -12 -12 4 -7 -5 -5 -21 5 -15 10
-42 17 -59 16 -37 -2 -77 9 -77 22 0 24 -102 39 -152 23 -15 -4 -18 1 -18 28
0 51 12 64 42 44 23 -15 26 -15 39 0 11 14 11 18 -6 30 -10 8 -24 14 -31 14
-16 0 -82 75 -94 106 -5 13 -14 24 -19 24 -16 0 -18 34 -3 52 11 13 12 27 6
55 -6 30 -9 33 -12 16 -4 -24 -17 -30 -27 -13 -4 6 -21 10 -38 9 -55 -3 -61
-1 -47 16 10 12 9 16 -4 21 -9 3 -16 12 -16 19 0 7 -7 15 -15 19 -18 6 -19 -3
-4 -41 17 -43 18 -76 5 -93 -19 -22 -26 -49 -16 -55 22 -14 8 -23 -25 -18 -20
3 -35 1 -35 -4 0 -18 12 -22 31 -12 25 13 26 -6 2 -20 -10 -6 -13 -10 -8 -10
6 -1 21 8 35 19 14 11 30 20 37 20 24 0 61 -23 56 -36 -3 -9 2 -11 18 -7 18 5
21 3 16 -11 -4 -10 -3 -15 3 -11 6 3 10 2 10 -4 0 -6 11 -13 25 -17 44 -11 18
-17 -67 -16 -91 1 -181 -13 -201 -31 -7 -7 -24 -18 -37 -26 -21 -12 -25 -11
-37 4 -9 14 -10 22 -1 32 8 10 7 12 -5 8 -8 -4 -18 -2 -22 4 -3 6 -17 11 -31
11 -14 0 -23 4 -19 10 3 5 -19 38 -50 74 -30 36 -55 68 -55 71 0 3 15 -5 33
-18 50 -38 79 -51 119 -53 34 -2 37 0 27 17 -5 10 -20 19 -33 19 -24 0 -35 18
-42 67 -3 22 28 67 40 56 3 -3 6 -3 6 1 0 3 -12 11 -26 16 -16 7 -24 16 -22
27 4 21 66 42 77 25 5 -8 21 -8 63 2 43 10 55 10 52 1 -9 -22 35 -25 47 -4 7
14 16 18 33 13 26 -6 44 11 55 52 6 25 8 26 23 10 19 -18 44 -21 53 -6 4 6 34
25 67 43 91 48 101 54 89 58 -7 3 -6 14 4 33 9 16 14 30 13 30 -26 15 -58 23
-58 16 0 -5 5 -12 10 -15 8 -5 7 -11 -1 -21 -6 -7 -15 -12 -19 -9 -5 3 -11 1
-15 -5 -10 -16 -65 -12 -65 5 0 8 6 12 14 9 8 -3 17 -1 21 5 3 6 1 11 -4 11
-6 0 -11 5 -11 10 0 6 5 10 11 10 18 0 41 28 28 36 -8 4 -7 9 2 15 18 11 39
11 39 0z m1024 -4 c8 -7 17 -24 21 -37 4 -13 18 -44 31 -68 29 -55 29 -54 0
-42 -13 5 -27 6 -32 2 -4 -4 -4 -2 0 5 7 12 -12 63 -28 75 -6 4 -5 12 3 21 10
13 9 16 -7 22 -11 3 -24 5 -28 4 -21 -3 -26 2 -14 16 15 18 37 19 54 2z
m-3587 -23 c-3 -3 -12 -4 -19 -1 -8 3 -5 6 6 6 11 1 17 -2 13 -5z m3254 -31
c1 -38 1 -38 9 -9 5 16 6 34 3 40 -4 7 -1 7 7 -1 13 -12 5 -73 -11 -73 -5 0
-10 -12 -10 -27 -1 -17 -3 -21 -6 -10 -4 17 -15 22 -25 12 -3 -3 -2 -20 1 -38
5 -24 12 -31 27 -29 17 2 19 -3 15 -48 -2 -39 -6 -50 -17 -46 -8 3 -20 9 -28
12 -10 4 -18 -5 -24 -28 -6 -18 -13 -41 -17 -50 -8 -21 9 -24 50 -8 22 8 25
13 16 24 -10 11 -7 16 11 21 13 5 24 3 26 -4 2 -6 8 -11 13 -11 6 0 7 5 4 10
-3 6 1 10 9 10 12 0 16 -10 15 -37 -1 -21 -3 -30 -6 -20 -6 23 -30 22 -43 -4
-9 -16 -8 -26 4 -44 10 -15 12 -26 6 -30 -6 -3 -14 5 -20 19 -12 32 -38 34
-49 4 -5 -14 -10 -17 -15 -10 -10 17 -26 15 -26 -3 0 -8 -4 -15 -9 -15 -14 0
-24 39 -23 81 2 40 -8 53 -52 63 -38 9 -21 28 31 32 20 1 39 8 41 13 2 6 7 9
12 6 5 -3 13 9 19 27 11 34 8 86 -10 151 -13 47 -6 57 37 57 33 0 34 -2 35
-37z m-3271 3 c0 -11 -19 -15 -25 -6 -3 5 1 10 9 10 9 0 16 -2 16 -4z m2383
-11 c-3 -9 -8 -14 -10 -11 -3 3 -2 9 2 15 9 16 15 13 8 -4z m637 -18 c0 -4 4
-6 9 -3 5 3 12 -1 15 -10 3 -8 10 -12 16 -9 5 3 10 -3 10 -14 0 -23 -35 -36
-75 -29 -13 3 -26 0 -28 -6 -3 -6 -10 2 -16 17 -6 16 -16 25 -21 22 -6 -3 -13
1 -16 9 -3 9 -10 13 -15 10 -5 -3 -7 -10 -4 -15 4 -5 1 -9 -4 -9 -13 0 -13 3
-5 24 7 19 34 21 35 4 1 -7 5 -2 9 12 8 25 8 25 9 2 1 -27 21 -20 21 8 0 16 3
17 30 7 17 -6 30 -15 30 -20z m-290 4 c0 -13 -28 -22 -35 -11 -3 4 1 11 7 13
20 8 28 8 28 -2z m587 -73 c-3 -8 -6 -5 -6 6 -1 11 2 17 5 13 3 -3 4 -12 1
-19z m-863 -15 c10 -25 -10 -39 -23 -15 -10 19 -6 32 10 32 4 0 10 -8 13 -17z
m866 -23 c0 -5 -4 -10 -10 -10 -5 0 -10 5 -10 10 0 6 5 10 10 10 6 0 10 -4 10
-10z m346 -5 c16 -10 20 -21 16 -41 l-5 -26 -23 29 c-37 45 -30 68 12 38z
m-2821 -35 c3 -5 -1 -10 -10 -10 -9 0 -13 5 -10 10 3 6 8 10 10 10 2 0 7 -4
10 -10z m955 -18 c-6 -2 -10 -8 -10 -13 0 -6 4 -8 9 -4 6 3 13 -15 17 -41 4
-31 9 -42 15 -33 6 9 9 -4 9 -34 0 -31 4 -46 10 -42 7 4 9 -3 5 -22 -5 -22 -4
-25 5 -13 9 12 10 10 6 -12 -4 -16 -3 -28 2 -28 5 0 15 -26 22 -57 7 -32 19
-71 27 -86 7 -15 11 -32 8 -36 -6 -11 50 -168 67 -189 7 -7 12 -23 13 -34 1
-11 8 -24 16 -29 8 -5 11 -9 7 -9 -4 0 0 -21 8 -47 8 -27 16 -55 18 -63 4 -24
58 -134 70 -142 6 -4 7 -8 3 -8 -5 0 -5 -6 0 -12 4 -7 8 -17 8 -21 0 -5 11
-15 25 -23 21 -12 22 -14 5 -12 -16 3 -19 -2 -17 -24 1 -16 -1 -28 -5 -28 -9
0 -57 70 -58 85 -1 25 -18 55 -29 55 -8 0 -20 8 -27 17 -12 15 -12 16 3 10 14
-5 17 -2 14 16 -3 12 -5 26 -5 31 -1 4 -10 6 -20 3 -14 -3 -18 -1 -14 9 3 8 1
14 -5 14 -6 0 -8 9 -5 20 3 11 1 20 -3 20 -19 0 -33 -17 -30 -35 2 -11 -1 -25
-6 -31 -5 -7 -8 -16 -7 -20 4 -16 -13 -64 -22 -64 -5 0 -9 9 -9 20 0 11 6 20
13 20 8 0 8 3 -2 9 -13 8 -12 17 2 61 9 29 17 60 17 69 0 9 4 21 10 27 16 16
-48 194 -70 194 -5 0 -10 7 -10 16 0 10 -5 12 -12 7 -29 -17 -37 -12 -26 19 8
21 7 33 -1 41 -8 8 -11 4 -11 -16 0 -20 -5 -27 -20 -27 -14 0 -20 7 -20 23 0
16 -3 18 -9 9 -6 -11 -10 -10 -16 5 -8 17 -11 26 -14 39 0 3 -7 -1 -15 -9 -8
-8 -16 -34 -19 -58 -2 -29 -4 -17 -6 36 -1 44 -4 88 -6 97 -2 10 1 20 6 24 5
3 9 0 9 -7 0 -7 3 -10 6 -6 3 3 -4 20 -16 36 -12 17 -24 43 -26 58 -3 16 -11
40 -18 55 -12 22 -12 26 0 21 8 -3 14 -10 14 -16 0 -6 6 -3 13 8 8 10 18 15
23 12 5 -3 10 3 10 13 0 10 -4 16 -8 14 -4 -3 -8 12 -8 33 0 25 3 33 9 25 11
-18 24 13 16 39 -5 14 -1 19 13 19 11 0 24 11 31 27 10 22 14 24 21 12 6 -8 6
-15 0 -17z m60 18 c0 -5 -4 -10 -10 -10 -5 0 -10 5 -10 10 0 6 5 10 10 10 6 0
10 -4 10 -10z m-1017 -40 c-9 -9 -29 -13 -53 -11 -12 1 -13 3 -1 10 17 11 65
11 54 1z m1108 -123 c-8 -8 -11 5 -10 49 l1 59 10 -48 c8 -35 7 -52 -1 -60z
m1804 75 c8 -31 -11 -54 -25 -32 -15 23 -12 57 4 57 8 0 17 -11 21 -25z
m-2180 -22 c-3 -5 -14 -10 -23 -10 -15 0 -15 2 -2 10 20 13 33 13 25 0z m101
-37 c-7 -7 -26 7 -26 19 0 6 6 6 15 -2 9 -7 13 -15 11 -17z m2387 13 c8 -19 1
-24 -28 -18 -20 3 -23 7 -14 18 15 18 35 18 42 0z m37 4 c0 -5 -2 -10 -4 -10
-3 0 -8 5 -11 10 -3 6 -1 10 4 10 6 0 11 -4 11 -10z m-420 -65 c-12 -14 -11
-18 0 -25 10 -6 18 -4 23 6 5 8 12 12 17 9 17 -11 49 15 52 42 3 24 5 22 24
-20 l21 -47 -41 5 -41 5 35 -15 35 -15 -37 5 c-30 5 -43 1 -60 -16 -13 -12
-18 -19 -11 -15 6 3 22 -6 35 -22 14 -17 30 -26 42 -24 15 3 16 6 5 12 -17 11
-12 16 22 25 23 6 26 4 26 -24 0 -17 -5 -31 -11 -31 -6 0 -5 -4 2 -9 9 -6 0
-18 -35 -47 -26 -21 -84 -73 -128 -116 -77 -74 -79 -78 -60 -92 31 -23 63 -20
61 5 -1 23 29 36 40 18 4 -6 11 -6 19 1 16 13 39 4 29 -11 -3 -5 -9 -7 -14 -4
-13 8 -24 -35 -12 -47 8 -8 20 -7 41 2 26 10 30 16 24 38 -6 25 -6 25 43 18
93 -13 89 -14 86 22 -3 23 1 32 12 32 8 0 18 -4 21 -10 3 -5 14 -10 24 -10 22
0 87 -58 95 -87 4 -12 2 -24 -5 -29 -8 -4 -1 -16 21 -35 18 -16 37 -29 41 -29
5 0 9 -5 9 -11 0 -16 26 -39 35 -31 5 4 5 2 2 -4 -4 -7 1 -22 11 -35 30 -42
42 -68 42 -91 -1 -26 -22 -58 -39 -58 -14 0 -14 17 0 26 16 10 -6 28 -26 20
-9 -3 -14 -10 -11 -15 8 -13 -47 -51 -72 -51 -12 0 -27 -8 -34 -18 -7 -9 -35
-32 -62 -49 -42 -27 -53 -30 -70 -20 -12 6 -34 13 -51 14 -16 2 -41 4 -55 5
-21 3 -25 -1 -23 -22 1 -14 0 -19 -3 -12 -8 17 -33 15 -40 -3 -4 -10 -14 -13
-29 -9 -13 3 -26 1 -30 -6 -8 -12 -46 -3 -57 14 -5 8 -10 8 -19 -1 -15 -15
-69 19 -95 60 -11 16 -39 38 -64 49 -39 17 -50 18 -88 7 -23 -6 -45 -16 -48
-20 -3 -5 -9 -9 -13 -9 -16 0 8 99 28 119 12 12 21 28 21 37 0 9 8 26 18 39
15 18 18 35 14 77 -2 29 -10 56 -17 60 -15 9 -13 134 2 131 6 -1 10 5 9 15 -1
17 38 26 59 14 6 -4 17 -7 25 -7 17 0 16 -46 -2 -79 -7 -13 -7 -16 1 -12 5 4
26 7 46 8 26 1 34 5 31 15 -6 16 19 63 68 128 38 49 48 89 21 79 -16 -7 -18
-3 -9 20 3 9 12 12 22 9 12 -4 10 0 -5 14 -13 11 -20 23 -16 27 3 3 -3 6 -15
6 -12 0 -22 5 -22 11 0 5 -5 7 -10 4 -6 -4 -8 -11 -5 -16 4 -5 -1 -9 -9 -9 -9
0 -16 6 -16 13 0 9 -2 9 -9 -1 -6 -10 -19 -11 -46 -6 -36 6 -37 6 -25 -16 10
-18 9 -21 -1 -15 -9 6 -11 3 -6 -8 4 -11 2 -14 -9 -10 -8 3 -14 -1 -14 -11 0
-9 -4 -16 -8 -16 -5 0 -17 -7 -28 -15 -17 -14 -16 -14 13 0 42 20 44 19 33
-10 -8 -22 -7 -25 14 -25 14 0 31 -3 40 -6 11 -4 16 -1 16 11 0 9 4 14 10 10
6 -3 5 -15 -2 -31 -11 -23 -13 -24 -24 -10 -14 20 -25 21 -18 2 6 -16 -49 -36
-100 -36 -28 0 -29 1 -23 43 4 27 2 48 -5 55 -9 9 -7 16 8 29 22 21 25 72 6
96 -22 26 -2 71 32 74 15 1 50 8 79 16 29 9 75 14 104 12 32 -2 58 2 70 10 15
12 21 11 37 -5 17 -16 17 -21 6 -35z m-600 35 c0 -5 -4 -10 -10 -10 -5 0 -10
5 -10 10 0 6 5 10 10 10 6 0 10 -4 10 -10z m-1652 -12 c-10 -6 -10 -8 0 -8 6
0 11 -3 11 -7 -5 -29 1 -36 19 -21 21 18 62 30 62 17 0 -5 -5 -9 -11 -9 -5 0
-8 -4 -4 -10 3 -5 -1 -17 -10 -27 -8 -10 -14 -21 -13 -24 2 -3 -3 -13 -10 -22
-13 -15 -17 -13 -49 20 -29 32 -37 35 -53 25 -26 -16 -32 7 -8 33 11 11 14 21
8 23 -20 7 -1 17 34 18 22 0 32 -3 24 -8z m2439 -10 c-3 -8 -6 -5 -6 6 -1 11
2 17 5 13 3 -3 4 -12 1 -19z m53 18 c0 -2 -9 -6 -20 -9 -11 -3 -18 -1 -14 4 5
9 34 13 34 5z m280 -19 c0 -9 6 -18 13 -20 9 -4 8 -8 -3 -16 -9 -6 -19 -6 -24
-1 -4 4 -14 6 -20 4 -7 -3 -21 4 -31 16 -10 11 -23 20 -29 20 -6 0 -4 -5 4
-10 11 -7 5 -8 -20 -4 -63 12 -52 20 30 23 65 2 80 0 80 -12z m-2190 -29 c0
-5 -7 -8 -15 -8 -15 0 -20 21 -8 33 7 7 23 -11 23 -25z m2335 21 c11 -17 -1
-21 -15 -4 -8 9 -8 15 -2 15 6 0 14 -5 17 -11z m-387 -16 c-10 -2 -26 -2 -35
0 -10 3 -2 5 17 5 19 0 27 -2 18 -5z m-2689 -17 c6 -7 23 -11 39 -9 21 4 24 2
12 -6 -13 -9 -13 -11 2 -11 21 0 29 -12 18 -29 -5 -9 -15 -11 -26 -7 -16 6
-16 8 -4 16 12 8 11 10 -5 11 -100 8 -101 9 -92 34 8 19 41 20 56 1z m1090
-15 c9 -6 10 -11 2 -15 -6 -4 -11 -2 -11 4 0 6 -4 8 -10 5 -5 -3 -10 -1 -10 4
0 13 10 14 29 2z m948 2 c-11 -21 -20 -50 -21 -68 -1 -13 -7 -19 -18 -17 -11
2 -18 -3 -18 -13 0 -12 6 -15 20 -10 11 4 20 2 20 -4 0 -6 8 -11 19 -11 27 0
15 -47 -18 -66 -14 -8 -18 -13 -8 -10 17 5 21 -6 19 -44 0 -8 4 -23 9 -33 7
-12 7 -23 -1 -31 -8 -10 -7 -15 5 -20 9 -3 13 -11 9 -17 -3 -6 0 -15 7 -20 11
-7 10 -9 -3 -9 -12 0 -18 -8 -18 -25 0 -26 -15 -32 -40 -14 -13 9 -12 10 3 5
14 -5 17 1 17 38 0 26 -5 47 -12 50 -10 4 -10 8 -2 11 7 3 10 14 7 25 -6 23
-33 35 -33 15 0 -8 -5 -15 -10 -15 -6 0 -10 -6 -9 -12 4 -22 -17 -63 -25 -50
-4 7 -21 12 -38 12 -24 0 -28 3 -20 13 6 7 7 19 3 26 -6 9 -10 7 -14 -8 -3
-12 -13 -21 -22 -21 -14 0 -16 7 -10 43 12 81 17 97 26 91 6 -3 15 -1 22 4 7
5 27 13 46 17 20 4 29 10 22 15 -15 9 -9 59 8 69 7 5 13 15 15 23 1 8 9 23 19
32 9 10 17 22 17 27 0 5 7 9 16 9 8 0 13 -3 11 -7z m-2507 -18 c7 -9 8 -15 2
-15 -5 0 -12 7 -16 15 -3 8 -4 15 -2 15 2 0 9 -7 16 -15z m375 -5 c3 -6 -1 -7
-10 -4 -11 5 -14 2 -9 -10 3 -9 2 -16 -3 -16 -17 0 -23 13 -12 27 14 15 26 17
34 3z m429 -56 c4 -11 2 -12 -14 -4 -27 14 -34 29 -11 23 11 -3 22 -11 25 -19z
m-464 6 c0 -5 -2 -10 -4 -10 -3 0 -8 5 -11 10 -3 6 -1 10 4 10 6 0 11 -4 11
-10z m139 -12 c27 -17 32 -24 18 -26 -9 -2 -15 -8 -12 -13 12 -18 -14 -8 -45
17 -24 20 -28 29 -18 35 18 12 16 12 57 -13z m2938 16 c-3 -3 -12 -4 -19 -1
-8 3 -5 6 6 6 11 1 17 -2 13 -5z m186 -1 c-7 -2 -19 -2 -25 0 -7 3 -2 5 12 5
14 0 19 -2 13 -5z m-3613 -13 c0 -13 -20 -13 -40 0 -12 8 -9 10 13 10 15 0 27
-4 27 -10z m3725 -3 c30 -22 4 -26 -50 -6 l-50 17 41 1 c22 1 48 -5 59 -12z
m-3315 -29 c0 -5 -6 -16 -14 -24 -16 -16 -29 -4 -21 18 6 16 35 20 35 6z
m2387 -54 c-6 -35 -32 -66 -51 -61 -5 2 -11 18 -12 35 -2 26 3 35 24 47 40 21
45 19 39 -21z m-2153 15 c-2 -4 1 -19 7 -33 15 -33 0 -53 -41 -54 -35 -1 -38
8 -9 34 12 11 19 27 17 39 -3 15 1 21 13 21 10 0 16 -3 13 -7z m-47 -15 c-3
-3 -12 -4 -19 -1 -8 3 -5 6 6 6 11 1 17 -2 13 -5z m698 -4 c8 -13 -5 -13 -25
0 -13 8 -13 10 2 10 9 0 20 -4 23 -10z m-1644 -37 c14 -16 31 -40 38 -55 14
-28 8 -64 -8 -53 -6 3 -14 -2 -19 -11 -13 -24 -26 1 -12 25 7 14 7 28 -2 48
-9 22 -12 24 -15 10 -3 -10 -10 -17 -16 -15 -7 1 -23 -2 -36 -6 -32 -11 -44
10 -25 45 24 47 60 51 95 12z m750 0 c-12 -20 -14 -14 -5 12 4 9 9 14 11 11 3
-2 0 -13 -6 -23z m78 5 c14 -1 26 -9 29 -16 3 -9 -7 -11 -40 -6 -51 8 -52 9
-44 30 4 11 10 13 19 6 6 -6 23 -12 36 -14z m-409 2 c0 -5 -4 -10 -10 -10 -5
0 -10 5 -10 10 0 6 5 10 10 10 6 0 10 -4 10 -10z m-30 -15 c0 -8 -7 -15 -15
-15 -8 0 -15 7 -15 15 0 8 7 15 15 15 8 0 15 -7 15 -15z m1550 11 c0 -11 -19
-15 -25 -6 -3 5 1 10 9 10 9 0 16 -2 16 -4z m-1034 -32 c-3 -8 -1 -14 4 -14 5
0 12 -11 16 -25 5 -21 9 -23 26 -14 14 8 24 7 36 -3 33 -27 50 -47 44 -52 -3
-4 7 -19 22 -35 l27 -28 -30 -13 c-33 -13 -71 -62 -54 -67 6 -2 8 -14 5 -25
-5 -22 -5 -22 29 2 19 13 39 28 44 35 13 15 65 28 65 16 0 -4 -7 -28 -15 -51
-17 -49 -20 -116 -5 -125 11 -7 7 -266 -5 -285 -11 -18 -31 -11 -53 20 -15 20
-31 30 -50 30 -30 1 -68 42 -56 61 4 7 1 10 -7 7 -15 -5 -14 -76 2 -131 16
-55 11 -95 -12 -107 -21 -12 -49 1 -49 23 0 21 -93 150 -112 155 -10 2 -18 9
-18 14 0 6 -7 8 -15 4 -9 -3 -15 0 -15 9 0 8 -12 21 -27 29 -16 8 -22 15 -14
16 8 0 11 3 8 6 -4 4 -14 1 -24 -7 -14 -12 -15 -12 -9 0 6 9 5 12 -5 9 -8 -3
-22 -1 -31 4 -12 6 -18 5 -18 -2 0 -6 -5 -8 -10 -5 -6 4 -8 11 -5 16 4 5 2 9
-3 9 -5 0 -12 -9 -15 -20 -3 -11 -1 -20 4 -20 6 0 20 -9 32 -20 24 -23 37 -9
15 17 -12 14 -10 14 20 -1 17 -9 32 -19 32 -22 0 -3 -4 -2 -10 1 -5 3 -10 -1
-10 -9 0 -18 -36 -40 -51 -30 -6 3 -8 13 -5 21 4 8 1 11 -5 7 -6 -3 -9 -15 -6
-25 3 -11 1 -19 -3 -19 -5 0 -15 -3 -24 -6 -11 -4 -16 -1 -16 11 0 14 -3 15
-14 6 -15 -12 -46 -5 -46 11 0 5 10 18 22 27 31 25 15 43 -36 40 -22 -2 -54 3
-71 11 -55 26 -84 60 -50 60 9 0 15 10 15 26 0 21 4 24 20 19 11 -4 20 -2 20
4 0 6 8 11 18 11 26 0 58 35 41 46 -8 4 -10 3 -5 -4 4 -7 4 -12 -1 -12 -11 0
-40 20 -29 20 5 0 3 6 -3 13 -8 11 -5 21 14 43 14 16 28 29 32 29 5 1 18 6 29
13 12 6 24 8 28 5 3 -3 6 -1 6 5 0 7 -7 12 -15 12 -9 0 -18 7 -21 15 -4 8 -13
15 -21 15 -9 0 -26 11 -38 24 -12 13 -27 25 -35 28 -8 2 -10 9 -6 16 4 7 16
10 26 7 16 -5 16 -2 7 35 -9 32 -15 39 -29 34 -12 -3 -18 0 -18 10 0 18 20 32
20 14 1 -8 7 -5 16 7 16 20 16 19 9 -4 -5 -16 -4 -21 4 -17 6 4 11 0 11 -8 0
-9 7 -16 16 -16 8 0 22 -7 30 -15 14 -13 13 -15 -7 -15 -12 0 -19 -3 -15 -7 7
-8 11 -9 37 -12 7 0 9 -12 7 -26 -3 -14 -2 -25 2 -25 4 0 13 -11 20 -25 7 -14
22 -25 32 -25 13 0 17 4 11 13 -4 6 4 4 19 -5 25 -16 26 -16 21 2 -3 11 -1 20
5 20 17 0 23 -17 14 -42 -9 -25 -5 -58 7 -58 4 0 20 11 36 24 22 19 26 28 19
47 -8 24 -8 24 -13 -5 -8 -42 -34 -48 -28 -7 3 18 0 37 -7 44 -7 7 -11 17 -9
24 6 16 43 3 43 -16 1 -11 6 -9 21 11 19 25 21 26 49 11 27 -13 32 -13 46 1 8
9 27 19 40 22 23 6 24 8 9 24 -15 16 -14 18 4 23 15 4 20 15 23 58 2 30 0 56
-4 57 -5 2 -6 8 -3 12 9 14 37 -1 31 -16z m884 7 c0 -10 -24 -21 -43 -21 -7 0
-3 7 7 15 22 17 36 19 36 6z m-260 -11 c0 -5 -2 -10 -4 -10 -3 0 -8 5 -11 10
-3 6 -1 10 4 10 6 0 11 -4 11 -10z m125 -20 c3 -5 1 -10 -4 -10 -6 0 -11 5
-11 10 0 6 2 10 4 10 3 0 8 -4 11 -10z m-987 -15 c-2 -6 -8 -9 -15 -9 -6 1 -9
-5 -6 -12 3 -8 9 -14 15 -14 5 0 6 -5 3 -11 -5 -6 -13 -3 -22 11 -12 17 -12
24 -2 36 13 16 33 15 27 -1z m100 -22 c3 -21 1 -22 -27 -12 -17 6 -31 14 -31
18 0 31 54 25 58 -6z m100 5 c-5 -16 -48 -24 -48 -10 0 11 17 20 38 21 8 1 12
-5 10 -11z m1142 -15 c-1 -27 -1 -27 -15 -9 -14 19 -12 36 6 36 5 0 9 -12 9
-27z m1363 20 c8 -7 -11 -33 -24 -33 -5 0 -9 9 -9 20 0 19 20 27 33 13z
m-1283 -7 c0 -2 -9 -6 -20 -9 -11 -3 -18 -1 -14 4 5 9 34 13 34 5z m-397 -23
c-7 -2 -21 -2 -30 0 -10 3 -4 5 12 5 17 0 24 -2 18 -5z m-258 -13 c3 -5 1 -10
-4 -10 -6 0 -11 5 -11 10 0 6 2 10 4 10 3 0 8 -4 11 -10z m-182 -22 c-4 -13
-15 -36 -26 -51 -15 -22 -22 -26 -28 -15 -6 9 -9 2 -9 -20 0 -29 -2 -31 -19
-20 -21 13 -18 30 13 62 12 12 29 32 38 44 23 28 38 28 31 0z m845 -22 c23
-11 47 -25 53 -32 12 -15 3 -54 -13 -54 -6 0 -19 -7 -29 -16 -16 -15 -20 -15
-41 0 -12 9 -30 16 -39 16 -9 0 -27 9 -40 21 -23 19 -23 20 -2 14 18 -5 22 -1
28 27 13 67 16 73 29 57 6 -8 30 -23 54 -33z m232 14 c17 -23 29 -30 56 -30
21 0 42 -8 54 -20 34 -34 22 -61 -32 -75 -23 -6 -27 -3 -39 30 -11 28 -24 41
-61 58 -59 27 -65 63 -11 66 6 1 21 -12 33 -29z m-2470 0 c0 -16 7 -19 46 -18
39 0 51 -4 77 -30 27 -28 29 -33 18 -59 -7 -19 -9 -38 -3 -53 12 -32 3 -69
-19 -81 -11 -5 -20 -7 -20 -4 -1 3 -3 10 -4 15 -1 6 -3 15 -4 20 -2 19 -46 10
-66 -12 -27 -32 -45 -67 -45 -90 0 -10 -19 -38 -41 -60 l-42 -42 8 -71 c8 -86
8 -87 0 -157 -7 -49 -5 -61 16 -95 13 -21 24 -50 25 -66 l2 -27 -19 21 -19 22
-32 -35 c-18 -20 -43 -41 -55 -47 -13 -6 -23 -18 -23 -26 0 -8 -8 -15 -17 -15
-15 0 -16 -2 -3 -10 20 -13 -40 -13 -93 -1 -49 12 -54 17 -39 41 16 26 15 28
-9 32 -32 4 -47 33 -31 58 10 17 10 20 -3 20 -16 0 -19 17 -9 44 3 9 10 13 15
10 5 -3 9 -1 9 4 0 4 8 17 18 28 31 36 42 63 42 104 0 22 5 40 10 40 6 0 10 8
10 18 0 21 24 52 55 71 18 11 18 11 -5 5 -22 -6 -23 -5 -11 9 7 9 13 32 14 52
1 19 4 35 8 35 9 0 49 77 49 94 0 23 26 37 54 30 14 -3 24 -10 21 -14 -9 -14
20 -18 38 -5 12 8 19 30 22 61 2 27 4 54 5 59 5 22 -1 34 -13 29 -7 -2 -23 -1
-35 3 -21 8 -20 10 24 61 47 54 74 66 74 32z m830 -11 c0 -5 -4 -9 -10 -9 -5
0 -10 5 -10 11 0 5 -5 7 -12 3 -7 -4 -8 -3 -4 4 7 12 36 5 36 -9z m458 -28
c-12 -4 -28 17 -28 39 0 10 7 7 20 -10 11 -15 15 -26 8 -29z m1087 9 c-3 -5
-13 -10 -21 -10 -8 0 -12 5 -9 10 3 6 13 10 21 10 8 0 12 -4 9 -10z m-271 -15
c-4 -8 -11 -12 -16 -9 -6 4 -5 10 3 15 19 12 19 11 13 -6z m-1824 -14 c5 -11
7 -27 4 -36 -5 -13 -9 -11 -20 11 -8 14 -14 30 -14 35 0 16 19 9 30 -10z
m1560 -12 c-7 -11 -14 -19 -16 -16 -7 7 7 37 17 37 6 0 5 -9 -1 -21z m2270 1
c41 -41 -10 -56 -60 -18 -39 28 -38 38 5 38 22 0 43 -8 55 -20z m-3911 -21
c-19 -12 -24 -2 -8 17 9 11 14 13 17 4 3 -7 -2 -16 -9 -21z m271 1 c6 -11 8
-25 5 -30 -10 -16 -36 16 -29 34 8 21 11 20 24 -4z m745 10 c-3 -5 -13 -10
-21 -10 -8 0 -14 5 -14 10 0 6 9 10 21 10 11 0 17 -4 14 -10z m265 -21 c0 -16
-4 -28 -9 -25 -8 5 -3 56 5 56 2 0 4 -14 4 -31z m400 27 c0 -2 -7 -7 -16 -10
-8 -3 -12 -2 -9 4 6 10 25 14 25 6z m-445 -44 c-3 -7 -5 -17 -5 -22 0 -5 -13
-8 -30 -8 -29 1 -30 6 -8 35 13 16 50 12 43 -5z m432 4 c4 -3 1 -12 -6 -19 -9
-9 -14 -9 -20 1 -10 17 -22 17 -31 2 -6 -10 -14 -8 -31 5 l-24 17 23 -5 c12
-3 22 -1 22 4 0 9 57 6 67 -5z m55 -49 c2 -29 6 -36 18 -32 9 3 8 -1 -4 -10
-11 -8 -24 -15 -29 -15 -4 0 -6 -4 -3 -9 7 -11 -42 -7 -52 4 -4 5 0 6 9 3 12
-5 15 -1 11 18 -2 13 -8 24 -13 24 -5 0 -9 5 -9 11 0 6 9 8 20 4 15 -5 18 -3
14 9 -7 19 15 51 27 39 4 -4 9 -25 11 -46z m2139 36 c13 -16 12 -17 -3 -4 -17
13 -22 21 -14 21 2 0 10 -8 17 -17z m-2551 -5 c0 -7 -4 -19 -9 -27 -11 -17
-23 1 -15 23 7 19 24 21 24 4z m673 -12 c-8 -15 -11 -15 -28 0 -17 13 -17 15
-3 10 10 -3 20 -1 24 5 10 17 17 2 7 -15z m784 2 c-3 -8 -6 -5 -6 6 -1 11 2
17 5 13 3 -3 4 -12 1 -19z m1194 -30 c12 -24 42 -64 67 -90 45 -47 51 -65 18
-52 -9 3 -19 17 -22 31 -4 15 -12 22 -20 19 -8 -3 -14 -2 -14 3 0 4 -23 32
-51 61 -38 40 -47 55 -37 61 25 16 38 9 59 -33z m-1605 23 c-3 -5 3 -11 14
-14 11 -3 23 -1 26 4 3 5 10 7 15 4 5 -4 9 -1 9 4 0 14 47 14 55 1 4 -6 15 -8
26 -5 13 4 19 1 20 -9 3 -29 4 -34 11 -42 4 -4 3 -13 -4 -21 -6 -7 -8 -16 -4
-20 3 -3 6 -1 6 5 0 7 7 12 15 12 13 0 14 -4 5 -20 -9 -17 -8 -20 9 -20 21 0
31 -18 31 -59 0 -15 9 -37 19 -48 11 -12 17 -24 13 -28 -4 -4 -2 -6 3 -5 6 1
16 2 24 1 11 -1 11 -4 1 -16 -11 -13 -15 -13 -22 -3 -6 9 -7 5 -3 -9 5 -20 3
-23 -20 -23 -15 0 -33 7 -41 15 -9 8 -13 15 -9 15 3 0 3 5 -1 12 -5 7 -10 4
-16 -12 -7 -18 -13 -21 -37 -17 -20 4 -31 2 -35 -8 -8 -23 -27 -18 -55 14 -14
15 -36 34 -49 40 -21 11 -23 18 -20 80 2 53 -1 72 -15 85 -24 24 -21 62 5 80
26 18 32 20 24 7z m1684 -22 c0 -14 -26 -10 -39 5 -9 11 -9 15 1 19 14 5 38
-10 38 -24z m-1310 5 c0 -14 -3 -14 -15 -4 -8 7 -15 14 -15 16 0 2 7 4 15 4 8
0 15 -7 15 -16z m-2710 -13 c0 -4 -7 -8 -15 -8 -16 0 -20 9 -9 20 8 8 24 -1
24 -12z m1240 4 c0 -8 -4 -15 -10 -15 -5 0 -7 7 -4 15 4 8 8 15 10 15 2 0 4
-7 4 -15z m56 -10 c-3 -9 -11 -13 -16 -10 -8 5 -7 11 1 21 14 18 24 11 15 -11z
m459 -4 c3 -5 1 -12 -5 -16 -5 -3 -10 1 -10 9 0 9 -7 16 -15 16 -8 0 -15 5
-15 10 0 12 35 -3 45 -19z m775 9 c6 -11 8 -20 6 -20 -3 0 -10 9 -16 20 -6 11
-8 20 -6 20 3 0 10 -9 16 -20z m-350 0 c-12 -8 -12 -10 -1 -10 8 0 12 -2 9 -5
-3 -3 -13 -3 -22 1 -19 7 -11 24 12 24 15 0 15 -2 2 -10z m537 -26 c0 -18 -3
-18 -27 3 -27 23 -25 35 3 22 13 -6 24 -17 24 -25z m-1497 11 c17 -9 30 -20
30 -26 0 -11 32 -8 41 4 3 5 8 0 11 -11 4 -16 1 -18 -21 -14 -24 5 -25 4 -11
-13 10 -13 11 -16 2 -11 -9 5 -15 1 -19 -13 -3 -12 -9 -21 -15 -21 -5 0 -5 8
1 18 19 36 1 73 -31 64 -17 -4 -20 -2 -15 13 6 15 3 16 -20 11 -21 -5 -24 -4
-13 4 20 13 26 13 60 -5z m117 -7 c-3 -8 -6 -5 -6 6 -1 11 2 17 5 13 3 -3 4
-12 1 -19z m293 8 c0 -3 -4 -8 -10 -11 -5 -3 -10 -1 -10 4 0 6 5 11 10 11 6 0
10 -2 10 -4z m377 -2 c-3 -3 -12 -4 -19 -1 -8 3 -5 6 6 6 11 1 17 -2 13 -5z
m-2040 -10 c-3 -3 -12 -4 -19 -1 -8 3 -5 6 6 6 11 1 17 -2 13 -5z m1799 -21
c0 -10 -8 -26 -17 -35 -15 -14 -18 -14 -23 -2 -3 8 -1 14 4 14 6 0 10 6 10 14
0 8 6 17 13 19 6 3 12 6 12 6 1 1 1 -7 1 -16z m-1503 -15 c6 -19 -11 -48 -28
-48 -18 0 -20 31 -3 48 15 15 25 15 31 0z m1808 -9 c16 -11 34 -17 40 -13 8 4
9 3 5 -4 -9 -14 -46 -16 -46 -3 0 5 -9 13 -20 16 -11 3 -20 11 -20 16 0 14 9
11 41 -12z m2159 6 c10 -13 9 -15 -11 -14 -13 0 -18 3 -11 6 6 2 10 9 6 14 -9
15 2 10 16 -6z m-2148 -53 c12 -10 29 -13 53 -9 19 3 35 2 35 -4 0 -5 -5 -9
-10 -9 -21 0 20 -58 44 -62 16 -3 23 -1 19 5 -4 6 0 8 11 4 10 -4 25 -7 34 -7
12 0 14 -2 5 -8 -17 -11 2 -38 37 -55 14 -7 30 -23 37 -37 14 -28 45 -44 95
-48 11 -2 15 -9 11 -24 -4 -19 -3 -20 6 -8 7 10 11 11 11 3 0 -7 -10 -18 -22
-24 -13 -7 -26 -17 -30 -22 -4 -7 -11 -7 -21 1 -12 10 -18 9 -31 -4 -15 -14
-14 -18 9 -46 23 -28 30 -46 26 -75 -1 -7 6 -24 14 -37 14 -21 14 -27 3 -39
-11 -13 -14 -11 -23 11 -11 25 -11 24 -11 -11 l0 -37 53 4 53 5 11 -44 c7 -28
17 -45 30 -48 10 -3 24 -17 31 -32 11 -24 10 -29 -7 -41 -10 -8 -16 -16 -13
-19 3 -4 18 5 33 20 16 14 30 23 33 20 3 -3 -3 -12 -14 -19 -16 -12 -17 -18
-7 -34 8 -14 9 -22 0 -31 -8 -8 -2 -22 21 -55 18 -24 32 -53 32 -63 0 -20 -41
-43 -77 -43 -13 0 -23 -4 -23 -9 0 -9 33 -24 54 -26 5 0 13 -12 17 -27 4 -15
16 -37 28 -49 18 -19 20 -31 15 -65 -4 -29 -1 -49 9 -65 13 -21 23 -73 17 -89
-1 -3 -3 -16 -6 -29 -2 -13 -16 -34 -29 -47 -28 -26 -30 -36 -12 -65 10 -18 9
-23 -11 -39 -19 -16 -21 -23 -13 -39 17 -32 13 -42 -14 -35 -22 5 -25 3 -25
-20 0 -14 4 -26 9 -26 13 0 32 -58 20 -65 -5 -4 -9 -15 -9 -26 0 -21 -16 -24
-54 -9 -35 13 -53 53 -38 83 6 12 13 36 17 52 5 28 2 32 -42 55 -26 14 -83 59
-125 101 l-77 77 -98 6 c-54 3 -114 5 -134 6 -31 0 -37 4 -41 25 -5 21 -2 25
13 20 11 -4 19 -2 19 4 0 6 -7 11 -15 11 -23 0 -18 19 14 51 20 19 40 29 60
29 36 0 48 15 27 36 -32 32 -13 64 55 93 l51 23 28 -27 c37 -36 55 -103 34
-127 -21 -23 -10 -52 31 -84 30 -23 40 -25 88 -19 37 5 62 3 78 -5 19 -10 16
-5 -11 23 -19 20 -41 37 -47 37 -7 0 -13 4 -13 9 0 6 -21 29 -46 53 -47 44
-88 110 -81 131 6 19 137 -124 137 -149 0 -19 18 -35 42 -38 3 -1 10 -5 15
-10 5 -5 3 -6 -4 -2 -25 14 -13 -13 13 -31 15 -10 40 -30 56 -46 16 -15 34
-24 40 -21 7 4 8 2 4 -4 -10 -16 9 -15 23 1 15 18 1 35 -76 91 -66 48 -97 86
-98 119 0 13 -10 24 -30 30 -16 6 -43 23 -60 39 -16 15 -33 28 -36 28 -15 0
-87 119 -93 153 -4 21 -18 47 -32 59 -13 12 -24 28 -24 35 0 7 -5 13 -11 13
-7 0 -9 9 -6 21 4 14 1 19 -7 16 -7 -3 -18 4 -25 15 -17 28 4 43 52 39 9 -1
17 2 17 7 0 4 16 16 35 25 19 9 35 21 35 26 0 5 7 12 16 15 14 5 15 4 4 -9
-18 -22 10 -20 36 3 11 9 26 18 34 20 24 5 36 22 17 22 -9 0 -17 7 -17 15 0 9
-12 18 -30 22 -21 4 -36 16 -46 35 -9 17 -14 31 -12 32 2 2 14 10 28 19 15 11
19 17 9 17 -8 0 -22 9 -32 20 -14 16 -24 19 -56 14 -25 -4 -41 -2 -46 5 -5 9
-10 9 -21 0 -17 -14 -19 2 -3 18 16 16 0 36 -23 30 -14 -4 -18 -2 -14 9 4 9
-7 27 -26 45 -18 16 -28 29 -22 29 5 0 15 -5 22 -12 9 -9 12 -4 13 22 0 19 2
44 4 55 3 12 -9 35 -30 60 -22 26 -34 34 -35 24 0 -9 7 -22 15 -29 8 -7 13
-16 10 -20 -7 -12 -66 -4 -75 10 -9 15 -50 4 -50 -14 0 -6 -9 -12 -21 -13 -18
-2 -19 2 -14 29 5 21 3 33 -6 39 -11 7 -11 9 -1 9 7 0 10 5 7 10 -12 20 17 9
36 -12 l18 -23 -9 33 c-5 17 -6 32 -3 32 3 0 0 6 -6 14 -9 11 -6 12 14 8 14
-2 25 -1 24 4 -1 5 -1 12 0 15 2 11 105 -13 123 -29z m-762 9 c-8 -6 -18 -7
-22 -5 -15 10 -8 -3 17 -30 23 -25 30 -25 26 -3 -2 13 22 3 27 -11 2 -7 -5
-15 -15 -19 -10 -3 -21 -11 -25 -17 -4 -6 -20 0 -41 14 -34 23 -35 25 -21 52
11 20 22 28 42 28 20 0 23 -3 12 -9z m478 -9 c16 -12 25 -31 27 -56 2 -21 10
-45 19 -54 13 -15 13 -20 0 -36 -13 -18 -19 -15 -14 9 1 6 -4 5 -11 -2 -9 -9
-15 -8 -27 4 -14 14 -16 14 -22 -1 -5 -16 -8 -15 -24 3 -19 21 -19 21 0 22 14
0 15 2 4 6 -23 9 -30 26 -18 40 6 8 12 21 13 31 2 23 16 52 24 52 3 0 16 -9
29 -18z m-1572 -19 c7 -10 14 -25 14 -33 0 -9 7 -26 16 -38 11 -16 12 -22 3
-22 -7 0 -5 -7 7 -18 12 -11 28 -17 44 -14 l25 5 -23 -25 c-20 -22 -21 -27 -8
-37 8 -7 20 -10 26 -6 16 10 24 -24 9 -42 -13 -14 -11 -16 13 -11 24 5 25 3
15 -19 -17 -38 -44 -29 -52 18 -5 30 -10 38 -18 30 -18 -18 -28 -13 -25 12 2
14 -2 22 -12 22 -9 0 -15 -10 -15 -26 0 -14 -6 -34 -14 -43 -8 -9 -16 -30 -18
-46 -2 -23 3 -33 27 -47 17 -9 30 -21 30 -25 0 -4 6 -5 14 -2 18 7 32 -16 16
-26 -8 -5 -10 -16 -5 -31 10 -33 -11 -13 -33 32 -12 24 -25 35 -45 37 -20 3
-32 13 -47 43 l-21 40 30 53 c16 30 26 57 23 61 -4 4 2 5 14 1 15 -4 21 -2 21
9 0 9 -9 15 -23 15 -36 0 -81 20 -66 29 16 10 5 39 -17 46 -10 3 -17 15 -17
29 0 20 4 23 23 20 25 -5 30 5 11 25 -11 11 -6 13 26 8 21 -3 44 -14 52 -24z
m1419 17 c-3 -5 3 -10 15 -10 11 0 23 -7 26 -15 4 -8 9 -13 13 -11 4 3 13 1
21 -5 13 -7 12 -9 -2 -9 -10 0 -18 -6 -18 -14 0 -8 -4 -18 -10 -21 -6 -3 -7 1
-4 9 3 9 1 16 -6 16 -6 0 -8 5 -4 12 5 7 2 9 -9 5 -11 -4 -14 -2 -10 9 3 9 -2
14 -15 14 -22 0 -36 13 -25 24 10 10 35 7 28 -4z m260 0 c3 -5 1 -10 -4 -10
-6 0 -11 5 -11 10 0 6 2 10 4 10 3 0 8 -4 11 -10z m-1932 -56 c-7 -19 -10 -18
-16 5 -3 13 -1 18 9 14 7 -2 10 -11 7 -19z m50 11 c-3 -9 -8 -14 -10 -11 -3 3
-2 9 2 15 9 16 15 13 8 -4z m1392 -29 c-11 -8 -16 -19 -12 -30 4 -9 2 -16 -3
-16 -6 0 -10 -8 -10 -18 0 -19 -18 -42 -33 -42 -4 0 -5 5 -2 10 3 6 1 10 -4
10 -6 0 -11 9 -11 20 0 11 5 20 10 20 6 0 10 6 10 14 0 21 28 46 53 46 20 0
20 -1 2 -14z m2327 6 c12 -5 15 -11 9 -21 -8 -12 -12 -12 -25 2 -26 26 -20 33
16 19z m-1887 -11 c3 -5 2 -12 -3 -15 -5 -3 -9 1 -9 9 0 17 3 19 12 6z m1781
-23 c10 14 14 14 29 2 14 -12 18 -12 26 1 6 10 9 7 9 -13 0 -15 7 -31 16 -36
11 -6 13 -16 9 -35 -8 -31 -25 -46 -25 -22 0 17 0 17 -54 -31 -18 -16 -34 -23
-45 -18 -9 4 -24 7 -33 8 -13 0 -16 6 -12 26 12 54 26 90 35 90 5 0 9 10 10
23 0 19 1 20 12 5 10 -15 12 -15 23 0z m-2309 -14 c-3 -3 -12 -4 -19 -1 -8 3
-5 6 6 6 11 1 17 -2 13 -5z m647 -30 c3 -8 0 -21 -7 -27 -17 -17 -77 -16 -77
1 0 9 -8 11 -22 8 -13 -3 -17 -3 -10 0 6 3 10 10 6 15 -9 15 19 6 34 -11 8 -8
11 -10 8 -3 -7 13 20 32 45 33 9 0 20 -7 23 -16z m71 -2 c-3 -3 -11 0 -18 7
-9 10 -8 11 6 5 10 -3 15 -9 12 -12z m2422 -17 c0 -11 -4 -12 -14 -4 -7 6 -13
13 -13 15 0 2 6 4 13 4 8 0 14 -7 14 -15z m-4297 -15 c0 -16 -12 -40 -20 -40
-5 0 -12 9 -15 20 -4 11 -16 21 -28 21 -17 1 -15 3 8 8 32 8 55 4 55 -9z
m-143 -22 c-3 -8 -6 -5 -6 6 -1 11 2 17 5 13 3 -3 4 -12 1 -19z m4391 -5 c1
-24 0 -25 -9 -10 -5 9 -7 22 -4 27 9 15 10 13 13 -17z m-528 -22 c0 -14 3 -35
6 -47 l6 -21 61 22 c34 13 70 26 79 30 22 9 147 -40 170 -66 12 -14 29 -19 67
-19 38 0 53 -5 64 -20 8 -11 17 -17 21 -13 7 7 46 -31 46 -45 0 -5 7 -15 15
-22 9 -7 14 -18 12 -24 -3 -6 0 -19 4 -28 14 -27 -10 -33 -31 -8 l-19 22 -30
-48 c-29 -44 -29 -48 -13 -61 15 -13 15 -14 0 -10 -22 7 -30 -3 -17 -20 12
-14 4 -17 -39 -13 -13 1 -34 -5 -46 -14 -26 -16 -41 -56 -23 -56 7 0 6 -4 -2
-9 -8 -5 -11 -16 -7 -26 5 -15 1 -17 -31 -12 -21 3 -66 0 -101 -6 -51 -9 -65
-8 -72 2 -6 11 -8 11 -12 0 -4 -11 -10 -10 -27 5 -11 11 -21 25 -21 31 0 7 -8
19 -17 26 -15 12 -16 12 -10 -4 10 -26 -19 -33 -57 -13 -28 15 -29 15 -8 0 24
-18 30 -64 8 -64 -8 0 -17 11 -20 24 -6 23 -36 45 -36 26 0 -20 -39 -9 -59 16
-12 15 -21 21 -21 14 0 -7 11 -26 25 -42 l25 -30 -27 -21 c-15 -12 -32 -22
-37 -23 -59 -11 -99 -14 -89 -7 13 10 -9 83 -38 124 -24 34 -19 115 9 135 11
7 22 27 24 44 4 28 1 33 -34 51 -34 17 -37 21 -26 39 7 11 19 20 26 20 7 0 15
7 18 15 8 19 41 19 77 0 l27 -14 -1 48 c-2 54 6 75 27 67 9 -4 14 2 14 15 0
11 8 22 18 25 9 3 32 13 51 23 45 23 71 17 71 -18z m-3810 25 c0 -3 -4 -8 -10
-11 -5 -3 -10 -1 -10 4 0 6 5 11 10 11 6 0 10 -2 10 -4z m1463 -8 c-4 -7 -6
-21 -4 -32 2 -12 -1 -16 -9 -11 -9 6 -9 2 0 -15 19 -36 -3 -74 -51 -87 -33 -9
-42 -8 -46 3 -5 13 41 85 59 92 4 2 8 11 8 20 0 14 17 29 48 41 2 0 0 -5 -5
-11z m431 -1 c13 3 27 0 30 -6 7 -11 -5 -15 -31 -12 -7 1 -13 -3 -13 -9 0 -5
-4 -10 -9 -10 -5 0 -8 12 -8 28 0 15 2 22 4 16 2 -6 14 -9 27 -7z m-1359 -34
c7 -21 2 -25 -37 -26 -21 -1 -41 -11 -55 -27 -12 -14 -23 -20 -23 -13 0 6 5
15 10 18 17 10 11 25 -10 25 -11 0 -20 3 -20 8 0 10 51 32 61 26 5 -3 9 -1 9
4 0 15 58 1 65 -15z m3879 -24 c-3 -5 -17 -1 -32 8 l-27 17 28 -27 c27 -27 35
-47 17 -47 -5 0 -10 7 -10 15 0 15 -11 19 -39 15 -10 -1 -11 4 -6 17 4 10 8
24 8 31 0 7 6 11 12 8 7 -2 18 0 26 5 10 6 16 2 21 -12 5 -12 6 -25 2 -30z
m36 13 c-5 -2 -10 -13 -10 -25 0 -12 -5 -29 -11 -37 -8 -11 -9 -5 -5 25 3 22
6 49 6 60 1 20 1 20 16 0 9 -12 11 -21 4 -23z m-4583 6 c-3 -8 -6 -5 -6 6 -1
11 2 17 5 13 3 -3 4 -12 1 -19z m3333 15 c0 -5 -14 -24 -30 -43 l-30 -35 23
42 c20 39 37 55 37 36z m222 -15 c-7 -7 -12 -8 -12 -2 0 6 3 14 7 17 3 4 9 5
12 2 2 -3 -1 -11 -7 -17z m-824 1 c-2 -6 -8 -10 -13 -10 -5 0 -11 4 -13 10 -2
6 4 11 13 11 9 0 15 -5 13 -11z m1237 -9 c3 -5 1 -10 -4 -10 -6 0 -11 5 -11
10 0 6 2 10 4 10 3 0 8 -4 11 -10z m-3241 -16 c8 -21 -1 -34 -25 -34 -20 0
-23 8 -13 34 8 21 30 21 38 0z m-870 -12 c2 -4 0 -14 -6 -22 -8 -12 -9 -12 -4
2 3 10 -1 18 -12 21 -16 4 -16 5 0 6 9 0 19 -3 22 -7z m4567 -15 c-10 -9 -11
-8 -5 6 3 10 9 15 12 12 3 -3 0 -11 -7 -18z m-4071 -1 c0 -3 -4 -8 -10 -11 -5
-3 -10 -1 -10 4 0 6 5 11 10 11 6 0 10 -2 10 -4z m-177 -43 c48 -15 58 -33 40
-78 -5 -16 -8 -15 -23 5 l-17 22 -25 -23 c-13 -13 -29 -32 -35 -43 -9 -16 -12
-12 -21 30 -24 110 -24 112 6 107 15 -3 48 -11 75 -20z m347 0 c0 -13 -3 -13
-15 -3 -11 9 -15 9 -15 1 0 -7 -5 -9 -10 -6 -16 10 8 35 26 28 8 -3 14 -12 14
-20z m-58 -8 c8 -12 7 -20 -3 -26 -19 -12 -29 -11 -29 1 0 6 -5 9 -12 8 -7 -2
-13 7 -14 19 -1 17 4 21 24 19 13 -2 29 -11 34 -21z m-394 -73 c-1 -40 -3 -43
-15 -26 -8 11 -12 27 -10 36 3 9 0 19 -6 21 -6 2 -8 11 -4 21 13 34 37 -1 35
-52z m1412 43 c0 -8 -7 -11 -20 -8 -16 4 -18 8 -9 19 13 16 29 10 29 -11z
m3098 -10 c-3 -3 -9 2 -12 12 -6 14 -5 15 5 6 7 -7 10 -15 7 -18z m-4609 -7
c1 6 13 12 27 12 21 0 25 -4 21 -20 -3 -11 -1 -22 3 -25 5 -3 1 -19 -8 -35
-16 -28 -17 -28 -25 -8 -9 25 -20 16 -35 -29 -8 -26 -8 -33 5 -37 8 -3 20 -3
26 1 7 4 8 0 4 -11 -5 -14 -3 -17 8 -13 8 4 17 2 20 -4 4 -5 3 -9 -2 -8 -24 4
-35 -2 -29 -17 5 -12 2 -15 -10 -10 -13 5 -14 1 -9 -27 8 -36 16 -43 64 -57
25 -7 39 -6 49 3 13 10 14 7 8 -28 -4 -22 -8 -45 -8 -52 -2 -21 -30 -24 -49
-7 -24 22 -25 46 -1 37 16 -6 16 -6 0 10 -24 24 -31 21 -26 -13 4 -27 2 -29
-19 -26 -13 3 -23 0 -23 -6 0 -6 -3 -8 -7 -4 -13 13 -14 118 -1 134 11 13 11
14 -1 7 -11 -6 -13 -4 -8 8 3 9 2 19 -3 22 -15 9 -12 25 5 25 8 0 15 7 15 15
0 8 -6 12 -14 9 -16 -6 -29 43 -14 52 6 4 8 24 6 45 -2 22 0 39 4 39 5 0 8 10
9 23 0 21 1 21 9 2 5 -11 9 -14 9 -7z m571 2 c0 -5 -4 -10 -10 -10 -5 0 -10 5
-10 10 0 6 5 10 10 10 6 0 10 -4 10 -10z m4003 -10 c-3 -11 -9 -17 -15 -14 -5
3 -4 12 3 20 16 19 18 18 12 -6z m-4620 -29 c4 -15 -2 -22 -24 -30 -34 -12
-38 -1 -11 34 19 26 27 25 35 -4z m567 14 c6 16 8 14 12 -12 4 -28 2 -31 -14
-22 -13 7 -18 6 -18 -3 0 -9 -3 -9 -11 2 -13 18 -9 5 11 -34 12 -23 12 -30 2
-34 -7 -2 -19 -11 -28 -19 -14 -14 -17 -13 -39 7 -27 25 -39 62 -29 92 5 17
12 20 45 15 32 -4 39 -2 39 11 1 14 3 14 12 -3 11 -19 11 -19 18 0z m77 -7
c-3 -8 -6 -5 -6 6 -1 11 2 17 5 13 3 -3 4 -12 1 -19z m1463 -53 c11 -15 7 -14
-15 5 -37 31 -45 41 -45 58 0 12 23 -12 60 -63z m986 58 c20 -27 16 -35 -6
-13 -11 11 -20 22 -20 25 0 11 13 4 26 -12z m-3164 -15 c-7 -7 -12 -8 -12 -2
0 14 12 26 19 19 2 -3 -1 -11 -7 -17z m849 1 c24 -17 30 -18 35 -6 7 20 53 31
70 16 8 -7 11 -21 8 -35 -5 -19 -1 -24 22 -30 15 -4 43 -18 62 -30 19 -13 38
-21 43 -18 5 3 9 1 9 -5 0 -15 -30 -29 -54 -24 -18 3 -17 2 3 -7 13 -6 22 -13
19 -16 -7 -6 -58 17 -58 27 0 4 12 12 28 18 25 10 25 11 -10 6 -34 -5 -126 21
-114 32 3 3 -7 16 -21 29 -18 16 -29 21 -33 13 -8 -11 -50 8 -50 23 0 5 -7 8
-16 8 -8 0 -12 5 -9 10 10 16 34 12 66 -11z m3919 11 c0 -5 -4 -10 -9 -10 -6
0 -13 5 -16 10 -3 6 1 10 9 10 9 0 16 -4 16 -10z m-4020 -20 c0 -5 -4 -10 -10
-10 -5 0 -10 5 -10 10 0 6 5 10 10 10 6 0 10 -4 10 -10z m2177 -27 c-3 -10 -5
-4 -5 12 0 17 2 24 5 18 2 -7 2 -21 0 -30z m312 -36 c5 -12 11 -21 15 -19 4 2
21 -14 37 -34 16 -20 29 -34 29 -30 0 4 15 -3 33 -15 17 -12 29 -19 25 -14 -9
10 41 55 61 55 9 0 2 -13 -18 -34 l-33 -34 23 -13 c72 -38 71 -38 85 -24 18
18 18 25 -3 40 -20 15 -11 47 12 39 8 -3 15 -1 15 5 0 6 5 11 11 11 8 0 9 -4
0 -13 -16 -20 -4 -26 39 -21 21 2 41 0 45 -6 4 -7 12 -7 26 0 16 9 19 7 19
-12 0 -14 3 -18 8 -12 5 9 11 8 20 -2 11 -12 10 -14 -5 -15 -17 -1 -17 -2 0
-6 21 -6 12 -23 -12 -23 -25 0 -63 -36 -59 -55 4 -21 95 -57 123 -51 12 3 34
1 50 -3 27 -8 25 -9 -19 -10 -50 -1 -59 -10 -15 -14 54 -6 166 -51 197 -80 17
-17 32 -34 32 -38 0 -4 -27 0 -60 8 -33 9 -60 19 -60 24 0 5 -7 6 -15 3 -8 -4
-21 -1 -28 4 -7 6 -40 16 -72 22 -141 25 -185 36 -197 49 -10 10 -10 15 -1 18
19 7 4 31 -33 53 -18 12 -33 26 -31 32 1 6 -4 13 -12 16 -9 3 -11 0 -6 -8 6
-9 2 -9 -16 1 -65 34 -143 105 -228 208 -29 36 -31 42 -13 32 13 -7 27 -22 31
-34z m486 33 c3 -5 1 -10 -4 -10 -6 0 -11 5 -11 10 0 6 2 10 4 10 3 0 8 -4 11
-10z m-3052 -23 c4 3 7 1 7 -5 0 -23 -36 -13 -37 11 -2 20 -1 21 11 5 7 -10
16 -15 19 -11z m1751 0 c-1 -9 4 -13 12 -10 8 3 14 0 14 -6 0 -11 -42 -16 -52
-5 -3 3 -3 14 -1 25 6 23 29 20 27 -4z m101 -13 c0 -10 -6 -19 -12 -19 -7 0
-13 3 -13 8 0 4 0 14 0 23 0 9 6 14 13 12 6 -3 12 -13 12 -24z m-2015 7 c0
-11 -50 -29 -56 -20 -3 5 -3 12 -1 17 6 9 57 12 57 3z m3260 -42 c0 -11 -8
-10 -35 1 -11 5 -14 9 -6 9 9 1 11 9 8 24 l-6 22 20 -24 c10 -13 19 -27 19
-32z m-4227 26 c-3 -9 -8 -14 -10 -11 -3 3 -2 9 2 15 9 16 15 13 8 -4z m2937
5 c0 -5 -2 -10 -4 -10 -3 0 -8 5 -11 10 -3 6 -1 10 4 10 6 0 11 -4 11 -10z
m2197 -13 c2 -2 -2 -9 -10 -15 -10 -8 -16 -6 -25 8 -10 16 -9 18 10 15 11 -3
22 -6 25 -8z m-5149 -56 c-15 -5 -19 4 -11 24 6 18 7 18 13 -1 4 -10 3 -21 -2
-23z m387 21 c-3 -3 -11 0 -18 7 -9 10 -8 11 6 5 10 -3 15 -9 12 -12z m2515 8
c13 -9 13 -10 0 -10 -8 0 -22 5 -30 10 -13 9 -13 10 0 10 8 0 22 -5 30 -10z
m1206 -5 c-30 -16 -43 -14 -31 4 3 6 18 11 33 11 l27 0 -29 -15z m-3648 -20
c-3 -3 -9 2 -12 12 -6 14 -5 15 5 6 7 -7 10 -15 7 -18z m4657 9 c14 -9 32 -13
41 -10 14 5 15 4 4 -9 -14 -17 -40 -20 -40 -4 0 6 -9 8 -20 4 -11 -3 -20 -2
-20 3 0 6 -9 8 -20 5 -22 -6 -28 12 -7 20 22 10 37 7 62 -9z m-5067 -16 c-2
-6 -12 -12 -22 -14 -14 -2 -15 0 -5 12 14 17 32 19 27 2z m4072 8 c0 -2 -7 -7
-16 -10 -8 -3 -12 -2 -9 4 6 10 25 14 25 6z m1190 -12 c0 -2 -9 -4 -20 -4 -11
0 -20 4 -20 9 0 5 9 7 20 4 11 -3 20 -7 20 -9z m-4412 -12 c6 -18 -15 -14 -22
4 -4 10 -1 14 6 12 6 -2 14 -10 16 -16z m101 14 c-12 -10 -60 -16 -54 -6 3 5
18 10 32 10 15 0 24 -2 22 -4z m1783 -121 c28 -55 34 -74 21 -62 -11 9 -27 17
-36 17 -9 0 -17 4 -17 9 0 5 -15 11 -32 15 -23 5 -29 9 -20 15 11 7 11 9 -2
14 -22 9 -20 27 2 27 15 0 17 7 14 43 -3 40 -2 41 13 22 9 -11 35 -56 57 -100z
m2418 109 c0 -8 -19 -13 -24 -6 -3 5 1 9 9 9 8 0 15 -2 15 -3z m-147 -11 c-7
-2 -19 -2 -25 0 -7 3 -2 5 12 5 14 0 19 -2 13 -5z m-4103 -8 c0 -7 -30 -13
-34 -7 -3 4 4 9 15 9 10 1 19 0 19 -2z m1491 -28 c0 -20 1 -21 8 -3 6 16 9 17
13 4 9 -23 -7 -42 -28 -33 -11 4 -27 7 -36 6 -10 -1 -18 3 -18 9 0 7 -7 10
-15 6 -8 -3 -15 -2 -15 3 0 5 9 11 20 14 11 3 20 1 20 -4 0 -5 10 -9 21 -9 16
0 20 5 16 20 -3 11 -1 18 4 14 5 -3 9 -15 10 -27z m253 8 c-4 -8 -10 -12 -15
-9 -14 8 -10 24 6 24 9 0 12 -6 9 -15z m-2014 1 c0 -11 -19 -15 -25 -6 -3 5 1
10 9 10 9 0 16 -2 16 -4z m9 -32 c-8 -10 -15 -11 -24 -4 -6 5 -15 7 -18 3 -4
-3 -7 -2 -7 4 0 5 14 10 31 11 25 1 28 -2 18 -14z m3522 -6 c11 -21 11 -22 -4
-9 -10 7 -17 17 -17 22 0 15 9 10 21 -13z m784 1 c-4 -5 -1 -9 4 -9 6 0 11
-10 11 -22 l-1 -23 -13 24 c-15 26 -32 12 -21 -17 5 -15 4 -15 -12 1 -17 18
-17 19 2 33 11 9 19 20 17 25 -1 6 2 8 8 4 6 -3 8 -11 5 -16z m-4665 -2 c0 -8
-7 -28 -16 -46 -9 -18 -13 -35 -10 -38 3 -3 -1 -11 -9 -17 -8 -6 -17 -30 -21
-53 -5 -36 -3 -44 20 -64 14 -12 26 -32 26 -43 1 -26 22 -107 33 -124 5 -7 3
-14 -6 -18 -16 -6 -17 -20 -4 -41 13 -21 17 -53 6 -53 -6 0 -7 -4 -4 -10 3 -5
-3 -11 -14 -11 -12 -1 -26 -2 -32 -3 -14 -1 -46 -61 -55 -104 -3 -17 -4 -18
-33 -27 -16 -5 -21 -4 -17 4 4 7 -1 11 -13 11 -27 0 -27 -21 -1 -43 22 -18 25
-43 10 -67 -9 -13 -11 -13 -20 0 -8 13 -10 12 -10 -2 0 -10 4 -18 10 -18 5 0
17 -15 27 -32 12 -24 18 -28 21 -17 4 22 39 13 47 -11 3 -9 1 -29 -5 -44 -8
-23 -13 -25 -29 -17 -11 6 -21 16 -23 23 -3 9 -10 8 -25 -3 -19 -13 -20 -17
-8 -44 7 -17 14 -24 14 -17 1 15 27 16 36 1 4 -6 -2 -20 -13 -32 -15 -16 -18
-27 -11 -39 18 -31 -12 -31 -40 1 -15 17 -37 31 -49 31 -11 0 -24 5 -27 10 -4
6 -11 8 -16 5 -5 -4 -9 3 -9 14 0 12 -7 21 -15 21 -8 0 -15 5 -15 11 0 5 -4 8
-8 5 -4 -2 -9 20 -10 50 -2 36 1 53 8 49 8 -5 7 59 -2 103 -1 4 4 19 10 33 13
33 24 149 24 264 0 50 4 98 10 108 6 12 6 22 0 30 -6 7 -12 23 -14 37 -3 21 1
25 22 22 21 -2 22 -1 8 8 -20 12 -22 76 -4 99 20 26 84 60 102 55 12 -3 38 7
64 25 47 32 90 40 90 18z m397 -34 c-3 -10 -5 -2 -5 17 0 19 2 27 5 18 2 -10
2 -26 0 -35z m61 25 c-4 -29 -38 -38 -38 -10 0 19 11 29 33 31 5 1 7 -9 5 -21z
m2637 13 c3 -5 1 -12 -5 -16 -5 -3 -10 1 -10 9 0 18 6 21 15 7z m-3025 -11 c0
-5 -7 -10 -15 -10 -8 0 -15 5 -15 10 0 6 7 10 15 10 8 0 15 -4 15 -10z m1460
-5 c-10 -12 -10 -18 1 -32 13 -15 12 -15 -8 -4 -27 14 -27 15 -7 35 20 20 30
21 14 1z m87 -42 c-4 -45 -1 -66 15 -98 11 -22 26 -43 32 -47 8 -5 7 -8 -2 -8
-7 0 -21 14 -31 31 l-19 31 -6 -29 c-3 -15 -7 -60 -8 -100 -2 -63 1 -76 26
-113 15 -23 25 -44 23 -47 -3 -2 -10 5 -17 16 -6 12 -16 18 -22 15 -7 -5 -9
-1 -5 9 3 10 2 17 -3 17 -6 0 -11 -10 -12 -22 -2 -37 -4 -51 -12 -89 -6 -26
-3 -46 9 -69 15 -29 13 -58 -3 -34 -4 6 -15 10 -24 9 -14 -3 -15 1 -8 20 5 13
7 25 4 28 -2 2 0 55 5 118 6 63 13 152 16 199 3 47 10 112 15 145 5 33 10 63
10 68 0 4 5 7 11 7 7 0 9 -19 6 -57z m-203 16 c-3 -5 -11 -9 -17 -9 -7 0 -6 4
3 10 10 6 11 10 3 10 -7 0 -13 5 -13 11 0 8 5 8 15 -1 8 -7 12 -16 9 -21z
m639 16 c-3 -9 -8 -14 -10 -11 -3 3 -2 9 2 15 9 16 15 13 8 -4z m2707 5 c0 -5
6 -10 14 -10 8 0 16 -6 19 -13 3 -8 -5 -12 -28 -11 -43 2 -75 13 -75 25 0 6 3
8 8 6 4 -3 16 -1 27 4 28 11 35 11 35 -1z m-2570 -10 c-20 -13 -33 -13 -25 0
3 6 14 10 23 10 15 0 15 -2 2 -10z m-1692 -27 c-10 -2 -28 -2 -40 0 -13 2 -5
4 17 4 22 1 32 -1 23 -4z m1432 -3 c0 -5 -2 -10 -4 -10 -3 0 -8 5 -11 10 -3 6
-1 10 4 10 6 0 11 -4 11 -10z m340 0 c18 -12 2 -12 -25 0 -13 6 -15 9 -5 9 8
0 22 -4 30 -9z m705 -8 c-3 -3 -11 0 -18 7 -9 10 -8 11 6 5 10 -3 15 -9 12
-12z m-1470 -13 c-10 -15 -25 -10 -19 6 4 8 10 12 15 9 5 -3 7 -10 4 -15z
m2999 11 c6 0 17 -18 22 -40 6 -22 7 -37 3 -34 -5 3 -9 -13 -9 -35 0 -45 15
-52 65 -29 31 14 38 7 38 -34 0 -18 4 -39 10 -46 7 -9 4 -19 -12 -36 -11 -12
-18 -26 -14 -31 5 -4 3 -5 -4 -1 -7 4 -21 1 -31 -5 -14 -9 -31 -8 -75 5 -62
18 -71 27 -73 73 0 18 -8 41 -16 50 -19 22 -22 137 -4 152 13 11 56 20 74 15
8 -2 19 -4 26 -4z m-2971 -15 c-3 -9 -8 -14 -10 -11 -3 3 -2 9 2 15 9 16 15
13 8 -4z m637 7 c0 -14 -11 -21 -26 -15 -8 3 -11 9 -8 14 7 11 34 12 34 1z
m949 -52 c1 -13 0 -13 -9 0 -5 8 -9 26 -9 40 l1 25 8 -25 c4 -14 8 -32 9 -40z
m-1689 45 c0 -15 -37 -22 -55 -9 -17 13 -16 14 18 14 20 0 37 -2 37 -5z m3325
-25 c3 -5 1 -10 -4 -10 -6 0 -11 5 -11 10 0 6 2 10 4 10 3 0 8 -4 11 -10z
m-3721 -22 c-3 -4 -9 -8 -15 -8 -5 0 -9 4 -9 8 0 5 7 9 15 9 8 0 12 -4 9 -9z
m116 -2 c0 -2 -9 -6 -20 -9 -11 -3 -20 -1 -20 4 0 5 9 9 20 9 11 0 20 -2 20
-4z m1046 -5 c-3 -5 -16 -11 -28 -14 -22 -6 -22 -5 -4 8 22 17 40 20 32 6z
m-1366 -13 c0 -10 2 -10 8 0 7 10 15 10 38 1 24 -9 74 -23 156 -43 9 -3 30
-12 47 -20 16 -9 40 -16 53 -16 22 -1 22 -1 4 -15 -10 -7 -15 -18 -11 -24 3
-6 1 -11 -4 -11 -6 0 -11 9 -11 20 0 10 -9 24 -19 30 -21 11 -54 3 -45 -11 3
-5 0 -9 -5 -9 -6 0 -11 6 -11 14 0 9 -7 13 -20 11 -11 -2 -20 0 -20 6 0 5 -10
9 -22 8 -13 0 -17 -3 -10 -6 17 -7 15 -28 -5 -44 -15 -12 -16 -12 -10 4 6 17
4 16 -22 -2 -33 -24 -35 -22 -70 49 l-22 45 2 -35 c3 -54 0 -72 -11 -65 -5 3
-10 22 -10 41 0 19 -4 34 -10 34 -5 0 -10 7 -10 16 0 10 6 14 14 11 10 -4 13
-1 9 9 -3 7 0 14 6 14 6 0 11 -6 11 -12z m590 -40 c-37 -49 -37 -41 0 14 14
20 26 35 29 33 2 -2 -11 -23 -29 -47z m2905 42 c7 -11 -11 -50 -23 -50 -6 0
-9 47 -3 58 3 6 20 1 26 -8z m335 0 c0 -5 -2 -10 -4 -10 -3 0 -8 5 -11 10 -3
6 -1 10 4 10 6 0 11 -4 11 -10z m121 -20 c19 0 8 -16 -12 -17 -15 -1 -19 2
-15 13 3 9 7 21 7 27 1 7 3 4 6 -5 2 -10 9 -18 14 -18z m67 18 c-2 -6 -14 -12
-25 -13 -14 -1 -19 3 -16 12 6 16 46 18 41 1z m-218 -30 c0 -12 -18 -10 -25 3
-4 6 -13 8 -19 6 -7 -3 -19 -1 -27 5 -11 8 -10 9 4 4 9 -3 17 -1 17 4 0 6 11
5 25 -2 14 -6 25 -15 25 -20z m-1490 6 c0 -8 -4 -12 -10 -9 -5 3 -10 10 -10
16 0 5 5 9 10 9 6 0 10 -7 10 -16z m-1846 -6 c-3 -4 -14 -8 -25 -8 -11 0 -18
4 -14 9 3 6 14 9 25 8 10 -1 16 -5 14 -9z m-1154 -7 c0 -15 -24 -29 -64 -36
-36 -7 -38 -7 -27 13 10 19 30 27 74 31 9 0 17 -3 17 -8z m1104 -17 c3 -8 2
-12 -4 -9 -6 3 -10 10 -10 16 0 14 7 11 14 -7z m3406 1 c0 -8 -4 -15 -10 -15
-5 0 -7 7 -4 15 4 8 8 15 10 15 2 0 4 -7 4 -15z m30 -15 c0 -5 -5 -10 -11 -10
-5 0 -7 5 -4 10 3 6 8 10 11 10 2 0 4 -4 4 -10z m251 -28 c7 -15 15 -30 17
-34 2 -5 -3 -8 -11 -8 -8 0 -20 -7 -27 -15 -7 -8 -19 -15 -26 -15 -21 0 -17
28 6 40 11 6 20 15 20 20 0 6 -9 10 -20 10 -22 0 -23 1 -14 23 8 22 39 9 55
-21z m14 18 c3 -5 1 -10 -4 -10 -6 0 -11 5 -11 10 0 6 2 10 4 10 3 0 8 -4 11
-10z m-3735 -26 c0 -2 -9 -4 -20 -4 -11 0 -20 4 -20 9 0 5 9 7 20 4 11 -3 20
-7 20 -9z m580 6 c0 -5 -4 -10 -10 -10 -5 0 -10 5 -10 10 0 6 5 10 10 10 6 0
10 -4 10 -10z m792 -7 c10 -9 18 -20 18 -25 0 -16 -36 -8 -53 12 -10 12 -23
17 -34 14 -15 -5 -16 -4 -3 5 22 16 51 13 72 -6z m2072 3 c-10 -8 -21 -12 -24
-10 -5 6 21 24 34 24 6 0 1 -6 -10 -14z m81 5 c3 -5 1 -12 -5 -16 -5 -3 -10 1
-10 9 0 18 6 21 15 7z m-2931 -42 c-40 -8 -52 1 -23 17 18 9 27 10 38 1 12
-10 9 -13 -15 -18z m-599 11 c3 -5 -1 -10 -10 -10 -9 0 -13 5 -10 10 3 6 8 10
10 10 2 0 7 -4 10 -10z m3023 -17 c20 -1 41 2 48 8 8 7 14 7 19 -1 10 -15 55
-12 61 5 4 8 16 15 27 15 16 0 18 -3 9 -12 -17 -17 -15 -29 3 -22 53 21 -51
-87 -107 -111 -21 -8 -58 -15 -83 -15 -43 0 -46 2 -40 21 5 13 3 19 -3 15 -5
-3 -12 0 -15 8 -4 9 -14 12 -26 9 -20 -5 -81 30 -81 47 0 5 15 12 33 15 17 4
37 12 44 17 7 5 16 7 22 4 5 -3 12 1 15 10 5 14 9 14 22 3 9 -8 33 -15 52 -16z
m-3508 -4 c0 -5 -4 -9 -10 -9 -5 0 -10 7 -10 16 0 8 5 12 10 9 6 -3 10 -10 10
-16z m105 11 c3 -5 1 -10 -4 -10 -6 0 -11 5 -11 10 0 6 2 10 4 10 3 0 8 -4 11
-10z m2414 -46 c19 -24 32 -47 29 -49 -2 -2 -21 18 -41 45 -21 28 -34 50 -30
50 5 0 23 -21 42 -46z m1431 31 c0 -8 -2 -15 -4 -15 -2 0 -6 7 -10 15 -3 8 -1
15 4 15 6 0 10 -7 10 -15z m-3166 -19 c-3 -9 -12 -16 -19 -16 -6 0 -24 -11
-38 -24 -26 -24 -67 -43 -67 -32 0 4 24 22 54 41 30 19 58 40 61 46 10 15 17
5 9 -15z m339 1 c-2 -4 -5 -7 -8 -7 -3 0 -12 0 -21 0 -8 0 -13 4 -10 9 7 10
42 8 39 -2z m37 -18 c-7 -11 -14 -19 -16 -16 -7 7 7 37 17 37 6 0 5 -9 -1 -21z
m240 -9 c7 -17 21 -35 31 -41 29 -15 22 -29 -15 -29 -31 0 -34 3 -38 33 -3 17
-8 40 -13 50 -5 12 -3 17 8 17 8 0 20 -14 27 -30z m-335 9 c11 -17 -1 -21 -15
-4 -8 9 -8 15 -2 15 6 0 14 -5 17 -11z m-1326 -54 c-7 -6 -12 -6 -17 0 -4 6
-14 10 -22 10 -8 0 -16 7 -18 17 -3 15 -1 15 32 0 22 -11 31 -21 25 -27z
m1427 8 c-10 -10 -19 5 -10 18 6 11 8 11 12 0 2 -7 1 -15 -2 -18z m-1781 7
c-3 -5 -13 -10 -21 -10 -8 0 -12 -4 -9 -10 9 -14 21 -12 39 5 14 14 18 14 45
0 17 -8 51 -15 77 -15 26 0 44 -3 40 -7 -4 -4 -22 -6 -41 -5 -38 3 -53 -14
-53 -62 0 -20 3 -24 9 -15 7 10 11 11 17 2 4 -6 21 -13 37 -15 17 -2 29 -8 28
-15 -2 -7 0 -12 5 -12 24 4 34 -3 29 -21 -3 -13 1 -24 13 -30 24 -13 40 -13
40 0 0 6 -7 10 -15 10 -8 0 -15 5 -15 10 0 20 20 9 46 -25 27 -35 47 -44 59
-24 4 6 -2 13 -13 16 -11 3 -23 11 -26 19 -4 11 -2 12 14 4 10 -5 22 -15 25
-20 4 -6 10 -8 15 -5 5 3 11 1 15 -5 3 -5 0 -10 -7 -10 -9 0 -9 -3 2 -10 12
-8 12 -10 -5 -10 -15 0 -17 -2 -6 -9 8 -5 9 -11 3 -15 -5 -3 -13 1 -16 10 -3
8 -10 13 -15 9 -16 -9 -1 -35 19 -35 11 0 22 -5 25 -10 4 -7 -2 -9 -18 -5 -22
6 -24 4 -20 -19 3 -14 2 -50 -1 -79 -7 -51 -8 -53 -39 -55 -17 -2 -35 -7 -39
-12 -5 -6 -5 -8 -1 -5 3 3 15 -3 26 -12 15 -13 18 -14 12 -3 -8 13 -6 13 8 2
9 -8 21 -11 27 -7 16 10 12 -11 -6 -26 -9 -7 -14 -22 -11 -35 3 -20 1 -22 -14
-13 -16 8 -19 6 -19 -11 0 -11 5 -20 11 -20 6 0 8 -9 3 -22 -4 -13 -8 -30 -9
-40 -1 -9 -7 -23 -14 -32 -8 -9 -10 -26 -6 -46 5 -24 4 -29 -8 -24 -15 5 -29
35 -31 64 -1 8 -9 16 -18 18 -13 2 -16 -1 -12 -12 3 -9 2 -16 -4 -16 -6 0 -13
6 -15 13 -4 8 -6 7 -6 -4 -2 -31 -23 -39 -42 -16 l-18 22 6 -22 c3 -12 17 -30
32 -39 40 -27 53 -42 41 -49 -5 -3 -10 -1 -10 5 0 6 -4 9 -9 6 -5 -3 -12 1
-15 10 -3 9 -11 12 -18 8 -7 -4 -10 -3 -5 1 4 5 -2 18 -13 30 -18 19 -20 28
-11 65 5 23 7 48 5 55 -3 7 -1 16 5 20 6 3 11 11 11 17 0 6 -3 9 -6 5 -4 -3
-13 0 -20 8 -18 18 -8 66 11 59 10 -4 13 3 13 26 -1 18 -7 34 -15 37 -7 3 -13
20 -13 39 0 19 -4 34 -8 34 -14 0 -42 69 -36 87 4 13 3 15 -4 5 -7 -11 -10
-10 -16 3 -9 25 2 37 24 25 13 -7 19 -6 23 3 6 15 -15 47 -31 47 -6 0 -14 5
-18 12 -4 7 -3 8 4 4 7 -4 12 -1 13 6 1 29 8 51 17 57 6 3 -1 14 -14 24 -13
10 -24 13 -24 7 0 -5 5 -10 10 -10 7 0 7 -6 0 -20 -6 -11 -7 -20 -3 -20 4 0 0
-5 -10 -11 -15 -9 -24 -5 -47 20 -28 29 -28 30 -8 37 13 4 24 1 29 -7 7 -11 9
-10 9 4 0 16 -10 21 -35 18 -5 0 -15 11 -22 24 -9 20 -8 25 3 25 8 0 14 7 14
15 0 8 -4 15 -10 15 -17 0 -11 18 8 23 32 9 53 7 47 -3z m439 -16 c8 -21 8
-24 -3 -24 -5 0 -11 9 -14 20 -6 24 8 27 17 4z m50 5 c20 -10 29 -9 42 2 15
12 16 11 9 -11 -17 -58 -78 -67 -83 -12 -4 36 -3 37 32 21z m870 -40 c10 -22
15 -43 12 -46 -3 -3 -1 -12 6 -20 6 -7 7 -17 3 -21 -4 -4 -10 -2 -12 5 -2 7
-11 9 -19 6 -8 -3 -14 0 -14 6 0 6 4 11 10 11 5 0 1 13 -8 30 -9 16 -21 30
-25 30 -4 0 -3 9 3 20 15 29 24 25 44 -21z m941 31 c-3 -5 -11 -10 -16 -10 -6
0 -7 5 -4 10 3 6 11 10 16 10 6 0 7 -4 4 -10z m-2069 -23 c4 -4 -2 -7 -14 -7
-12 0 -22 4 -22 9 0 10 26 9 36 -2z m1159 4 c3 -5 1 -12 -5 -16 -5 -3 -10 1
-10 9 0 18 6 21 15 7z m-1085 -24 c8 -4 1 -4 -16 -1 -27 4 -32 1 -38 -18 -5
-18 -8 -20 -15 -9 -13 21 35 61 49 41 3 -4 12 -10 20 -13z m783 -22 c-3 -8 -9
-15 -14 -15 -10 0 -12 24 -3 33 11 11 24 -3 17 -18z m481 9 c3 -8 2 -12 -4 -9
-6 3 -10 10 -10 16 0 14 7 11 14 -7z m-1196 -13 c27 -23 28 -31 1 -31 -11 0
-18 4 -14 9 3 5 -2 17 -11 25 -22 22 -2 20 24 -3z m2850 -12 c-3 -8 -7 -3 -11
10 -4 17 -3 21 5 13 5 -5 8 -16 6 -23z m-2992 -9 c9 0 12 -5 8 -11 -3 -6 0
-15 7 -21 11 -7 9 -8 -6 -6 -30 5 -56 40 -42 57 10 12 12 12 15 -2 2 -10 10
-17 18 -17z m815 14 c14 -13 16 -20 6 -34 -9 -15 -7 -23 8 -40 13 -14 22 -17
29 -10 17 17 26 11 26 -15 0 -31 27 -34 32 -3 2 12 9 23 17 26 9 3 11 0 6 -8
-6 -9 0 -10 25 -5 25 5 31 4 25 -5 -5 -9 -4 -11 4 -6 14 9 5 26 -14 26 -19 0
-26 27 -10 40 17 14 47 0 70 -33 16 -22 16 -22 10 8 l-7 30 21 -25 c21 -24 22
-25 36 -6 12 16 18 17 27 8 9 -9 9 -12 0 -12 -8 0 -11 -14 -9 -40 3 -39 -6
-53 -17 -27 -3 6 -4 3 -3 -8 3 -22 -48 -85 -69 -85 -7 0 -19 -9 -27 -20 -24
-35 -117 -61 -143 -40 -8 8 -14 8 -19 0 -9 -15 -25 -12 -25 5 0 8 5 15 11 15
5 0 7 5 4 10 -9 14 -21 5 -28 -21 -7 -26 42 -78 91 -98 19 -8 49 -30 67 -49
l33 -35 -20 -36 c-28 -52 -33 -55 -138 -96 -115 -45 -113 -44 -101 -59 14 -16
-10 -51 -48 -71 -17 -8 -31 -26 -35 -42 -4 -15 -9 -36 -12 -45 -6 -19 21 -26
28 -8 5 14 48 0 48 -16 0 -7 -5 -16 -12 -20 -8 -5 -9 -2 -5 9 3 10 2 17 -3 17
-14 0 -21 -18 -10 -25 15 -9 12 -25 -5 -25 -9 0 -12 -6 -8 -17 4 -11 8 -13 11
-5 2 7 9 9 14 6 7 -4 8 -2 4 4 -3 6 2 16 13 22 11 5 22 6 25 2 6 -11 76 -2 76
9 0 5 9 9 20 9 11 0 20 -4 20 -10 0 -5 6 -10 14 -10 8 0 14 -8 13 -18 -1 -19
-7 -20 -74 -8 -25 5 -49 3 -60 -3 -16 -9 -15 -10 7 -11 23 -1 23 -2 8 -14 -10
-7 -15 -16 -11 -19 3 -4 1 -7 -6 -7 -7 0 -9 -4 -6 -10 4 -6 -5 -9 -19 -8 -21
2 -25 6 -20 23 4 11 11 22 15 23 5 2 9 8 9 13 0 6 -9 5 -21 -1 -11 -7 -27 -9
-35 -6 -8 3 -14 2 -14 -3 0 -5 9 -11 19 -14 28 -7 17 -45 -12 -43 -18 1 -22 7
-22 34 0 32 -20 56 -38 45 -5 -3 -17 4 -28 16 -11 12 -27 21 -35 21 -11 0 -10
-5 6 -22 20 -22 27 -53 13 -60 -5 -1 -15 -16 -23 -32 -8 -16 -21 -31 -27 -33
-7 -3 -47 30 -88 72 -84 84 -82 76 -39 174 26 58 30 81 13 81 -6 0 -8 8 -4 19
4 12 -4 30 -21 51 -15 18 -30 48 -33 68 -5 31 -2 41 19 60 l25 22 -25 21 c-14
12 -25 25 -25 29 0 17 -15 22 -30 10 -13 -10 -19 -10 -33 4 -10 9 -23 16 -29
16 -5 0 -10 14 -11 30 0 17 -3 39 -7 50 -3 10 -1 28 5 40 7 13 7 20 0 20 -5 0
-10 8 -10 18 1 14 5 12 25 -10 l24 -28 35 34 c38 35 42 49 27 89 -12 32 -1 42
110 95 85 41 88 41 166 35 55 -4 82 -2 87 6 11 17 106 14 127 -5z m-757 -2 c3
-5 -1 -9 -9 -9 -8 0 -12 4 -9 9 3 4 7 8 9 8 2 0 6 -4 9 -8z m4213 -12 c20 0 8
-13 -15 -17 -25 -4 -44 5 -37 18 4 6 14 8 22 5 8 -3 22 -6 30 -6z m-3234 -7
c-7 -2 -19 -2 -25 0 -7 3 -2 5 12 5 14 0 19 -2 13 -5z m-990 -18 c4 -8 1 -17
-6 -21 -7 -4 -9 -4 -5 1 4 4 3 14 -3 22 -7 8 -8 13 -1 13 5 0 12 -7 15 -15z
m107 -54 c0 -5 -9 -7 -20 -4 -11 3 -20 9 -20 14 0 5 -6 6 -13 3 -8 -3 -14 2
-14 11 0 8 5 15 10 15 5 0 6 8 3 18 -4 9 7 3 24 -15 16 -18 30 -36 30 -42z
m4170 29 c0 -5 -5 -10 -11 -10 -5 0 -7 5 -4 10 3 6 8 10 11 10 2 0 4 -4 4 -10z
m-2354 -25 c-1 -28 -26 -35 -26 -7 0 10 3 22 7 25 13 14 21 6 19 -18z m1133 2
c12 -15 12 -17 -3 -11 -9 3 -16 13 -16 22 0 8 1 13 3 11 1 -2 9 -12 16 -22z
m-1639 -17 c0 -5 -7 -7 -15 -4 -8 4 -15 8 -15 10 0 2 7 4 15 4 8 0 15 -4 15
-10z m1385 0 c-3 -5 -12 -10 -18 -10 -7 0 -6 4 3 10 19 12 23 12 15 0z m-1619
-36 c-3 -9 -6 -23 -6 -32 0 -14 -2 -14 -9 -3 -10 16 -3 51 11 51 6 0 7 -7 4
-16z m47 -19 c-6 -17 -29 -20 -38 -6 -6 11 25 32 37 25 4 -3 5 -11 1 -19z
m-1507 7 c16 -10 6 -72 -11 -65 -8 2 -11 11 -8 19 3 8 0 20 -6 28 -17 20 2 34
25 18z m3234 -2 c0 -5 -2 -10 -4 -10 -3 0 -8 5 -11 10 -3 6 -1 10 4 10 6 0 11
-4 11 -10z m40 -48 c0 -9 -4 -23 -9 -30 -13 -22 -30 8 -20 36 10 25 29 21 29
-6z m-3470 -33 c0 -18 -2 -20 -15 -9 -13 11 -13 15 -3 21 18 12 18 12 18 -12z
m4280 5 c0 -8 -4 -12 -10 -9 -5 3 -10 10 -10 16 0 5 5 9 10 9 6 0 10 -7 10
-16z m-43 -13 c29 -10 55 -16 58 -12 4 3 5 1 3 -5 -1 -6 9 -25 24 -42 41 -47
48 -66 48 -141 0 -52 3 -70 13 -68 6 1 12 -7 13 -18 2 -37 5 -40 19 -21 17 22
50 17 82 -13 15 -14 23 -17 26 -8 5 13 63 -42 59 -56 -3 -11 59 -67 75 -67 16
0 73 -56 73 -71 0 -8 -7 -6 -18 4 -21 20 -37 22 -26 5 5 -8 -2 -9 -27 -5 -26
5 -30 4 -19 -4 12 -8 9 -9 -12 -5 -16 4 -28 2 -28 -4 0 -5 -5 -10 -10 -10 -6
0 -9 3 -9 7 5 31 -24 48 -34 21 -3 -10 -7 -10 -20 0 -9 8 -20 11 -26 8 -5 -3
-12 13 -16 36 -7 40 -18 57 -39 58 -5 0 -3 -7 4 -15 10 -12 9 -15 -6 -15 -22
0 -62 -57 -71 -100 -4 -23 -2 -30 10 -30 9 0 20 7 24 15 12 20 63 34 88 24 11
-4 14 -8 6 -8 -10 -1 -7 -7 7 -20 25 -21 28 -37 10 -44 -17 -6 -61 11 -54 21
9 15 -9 31 -24 22 -12 -8 -12 -10 4 -10 16 0 16 -2 5 -16 -10 -13 -10 -17 2
-25 10 -6 3 -9 -22 -9 -28 0 -38 -5 -42 -20 -4 -15 0 -20 13 -20 22 0 36 -16
19 -22 -6 -2 -12 -23 -12 -47 -2 -35 2 -45 16 -49 9 -2 17 -10 17 -16 0 -7 14
-11 35 -11 30 1 42 -5 75 -41 24 -26 40 -53 40 -68 0 -13 11 -37 24 -53 l23
-28 -71 1 c-39 0 -88 4 -109 9 -32 6 -44 4 -68 -14 -20 -15 -41 -21 -64 -20
-19 2 -37 0 -40 -3 -4 -4 -13 -4 -21 -1 -8 3 -14 0 -14 -7 0 -9 -4 -9 -13 -2
-7 6 -18 7 -26 3 -7 -5 -29 -2 -49 5 -39 13 -92 8 -92 -8 0 -6 -11 -7 -26 -4
-14 4 -31 3 -37 -2 -44 -34 -86 -14 -87 41 0 19 -5 27 -17 27 -14 0 -14 3 5
20 13 12 35 20 57 20 19 0 35 4 35 9 0 4 11 7 25 6 14 -2 25 1 25 6 0 6 5 7
10 4 16 -10 12 -25 -7 -25 -22 0 -8 -13 18 -17 15 -2 20 1 16 11 -5 13 18 27
50 30 7 1 31 20 55 42 36 34 62 52 112 77 3 1 11 -6 18 -16 8 -11 20 -16 30
-12 21 8 32 36 18 45 -18 11 -116 11 -145 0 -25 -9 -27 -8 -22 9 3 14 1 18 -9
14 -29 -11 -12 6 25 25 29 15 41 18 45 9 2 -7 5 -3 5 8 1 31 -11 42 -56 47
-36 5 -45 2 -69 -23 -15 -16 -24 -32 -21 -36 4 -3 7 0 7 7 0 7 9 3 20 -10 12
-13 18 -30 16 -37 -3 -7 2 -13 12 -14 12 0 9 -3 -7 -10 -19 -8 -27 -6 -33 5
-12 22 -52 43 -46 24 3 -7 -2 -18 -11 -24 -12 -9 -18 -8 -26 3 -10 13 -16 13
-34 4 -27 -15 -42 -5 -77 51 -14 21 -32 38 -41 38 -9 0 -14 3 -10 6 3 4 -1 20
-9 37 -9 16 -14 40 -12 52 4 18 -4 28 -35 48 -35 23 -67 65 -67 87 0 5 6 15
14 23 13 12 11 21 -10 63 -13 27 -40 69 -59 93 -20 24 -39 57 -42 74 -5 25 -8
28 -17 15 -9 -12 -15 -13 -26 -4 -17 13 -45 70 -30 61 5 -3 10 -2 10 2 0 5 28
9 62 10 64 1 80 11 114 69 10 17 14 17 69 4 46 -11 60 -11 63 -2 7 22 66 46
127 53 107 11 139 9 192 -10z m-2462 -21 c-3 -5 -14 -10 -23 -10 -15 0 -15 2
-2 10 20 13 33 13 25 0z m1600 -16 c0 -15 7 -19 32 -19 24 0 29 -3 21 -12 -24
-29 -58 -12 -73 36 -5 17 -4 22 6 19 8 -3 14 -13 14 -24z m-3373 -6 c-6 -6
-15 -8 -19 -4 -4 4 -1 11 7 16 19 12 27 3 12 -12z m4352 -3 c17 -25 16 -25 -4
-13 -11 7 -20 18 -20 25 0 19 6 16 24 -12z m-2189 -5 c3 -6 -1 -7 -9 -4 -18 7
-21 14 -7 14 6 0 13 -4 16 -10z m-2135 -20 c0 -5 -4 -10 -10 -10 -5 0 -10 5
-10 10 0 6 5 10 10 10 6 0 10 -4 10 -10z m4580 -39 c0 -8 6 -11 16 -7 21 8 54
-11 54 -32 0 -13 2 -14 9 -4 6 10 10 9 14 -7 5 -22 -11 -29 -28 -12 -9 9 -54
17 -105 21 -11 0 -8 6 8 18 l23 18 -25 12 c-14 6 -26 18 -26 26 0 13 5 12 30
-2 16 -9 30 -23 30 -31z m290 35 c0 -3 -4 -8 -10 -11 -5 -3 -10 -1 -10 4 0 6
5 11 10 11 6 0 10 -2 10 -4z m-1383 -38 c-3 -7 -5 -2 -5 12 0 14 2 19 5 13 2
-7 2 -19 0 -25z m990 18 c-4 -9 0 -12 13 -9 10 3 21 -1 25 -8 6 -8 4 -10 -5
-4 -7 4 -16 2 -20 -6 -7 -10 -14 -10 -34 -1 -34 15 -34 42 0 42 18 0 25 -4 21
-14z m-2363 -11 c3 -9 0 -15 -9 -15 -9 0 -12 6 -9 15 4 8 7 15 9 15 2 0 5 -7
9 -15z m2834 3 c7 -7 12 -17 12 -22 0 -6 -4 -5 -9 3 -8 12 -13 12 -24 3 -12
-10 -16 -9 -20 8 -6 23 21 28 41 8z m-3232 -37 c9 8 14 8 14 1 0 -6 12 -23 27
-37 15 -14 23 -25 18 -25 -5 0 1 -7 13 -16 30 -21 27 -35 -14 -62 -38 -23 -54
-22 -54 6 0 13 -2 14 -9 3 -7 -10 -10 -10 -16 -1 -4 7 -1 17 6 22 11 7 11 11
2 15 -9 3 -10 10 -3 24 9 16 7 21 -15 29 -26 10 -26 10 -8 34 13 18 19 20 21
10 3 -12 7 -13 18 -3z m-1461 0 c3 -5 1 -12 -5 -16 -5 -3 -10 1 -10 9 0 18 6
21 15 7z m1880 -41 c-3 -5 -10 -10 -16 -10 -5 0 -9 5 -9 10 0 6 7 10 16 10 8
0 12 -4 9 -10z m1304 -16 c-15 -18 -22 -13 -13 10 3 9 10 13 16 10 5 -3 4 -12
-3 -20z m72 4 c11 -21 11 -22 -4 -9 -10 7 -17 17 -17 22 0 15 9 10 21 -13z
m-3366 -7 c3 -5 1 -12 -5 -16 -5 -3 -10 1 -10 9 0 18 6 21 15 7z m65 -1 c0 -5
-2 -10 -4 -10 -3 0 -8 5 -11 10 -3 6 -1 10 4 10 6 0 11 -4 11 -10z m3257 -20
c-4 -16 2 -24 29 -35 44 -18 53 -41 25 -66 -11 -11 -22 -24 -22 -29 -1 -6 -3
-14 -4 -20 -1 -5 -3 -14 -4 -20 0 -5 -6 -10 -12 -10 -6 0 -8 9 -4 20 4 12 2
20 -5 20 -6 0 -9 -4 -6 -8 2 -4 1 -13 -3 -20 -6 -9 -14 -7 -34 8 -14 12 -28
20 -29 19 -2 -1 -22 4 -45 11 -39 12 -43 16 -43 47 0 21 -5 33 -13 33 -12 0
-14 16 -8 50 1 2 6 -1 13 -8 9 -9 15 -9 26 0 10 9 16 8 23 -3 7 -12 9 -12 9 2
0 17 30 22 30 5 0 -6 4 -5 9 3 6 9 11 10 15 2 11 -17 49 -14 42 4 -3 8 0 15 5
15 6 0 9 -9 6 -20z m-3708 -46 c-9 -11 -8 -14 7 -14 16 0 16 -2 4 -10 -10 -6
-20 -4 -33 8 -17 15 -17 17 -1 29 21 16 39 6 23 -13z m351 16 c0 -5 -4 -10
-10 -10 -5 0 -10 5 -10 10 0 6 5 10 10 10 6 0 10 -4 10 -10z m2937 -53 c12 5
14 3 7 -8 -4 -8 -7 -22 -6 -31 3 -18 -1 -20 -43 -22 -12 -1 -19 -7 -17 -16 2
-8 -4 -20 -14 -27 -13 -10 -19 -9 -31 3 -8 8 -19 11 -25 8 -6 -4 -6 1 1 14 11
21 38 35 51 27 5 -3 11 8 15 25 4 17 11 28 16 24 5 -3 9 3 9 13 1 17 1 17 11
1 6 -11 16 -15 26 -11z m33 13 c0 -5 -2 -10 -4 -10 -3 0 -8 5 -11 10 -3 6 -1
10 4 10 6 0 11 -4 11 -10z m-1417 -13 c4 3 7 -1 7 -11 0 -14 -4 -15 -20 -6
-11 6 -20 16 -20 22 0 7 4 7 13 -1 8 -6 17 -8 20 -4z m-89 -58 c4 -45 2 -56
-9 -56 -13 0 -16 3 -15 22 1 12 -26 33 -34 27 -5 -3 -6 5 -3 19 4 13 7 27 7
31 0 5 37 16 46 13 1 0 4 -25 8 -56z m67 12 c17 -6 29 -17 29 -27 0 -14 -3
-15 -12 -6 -17 17 -41 15 -34 -3 3 -8 1 -15 -3 -15 -12 0 -22 27 -26 70 -4 31
-3 32 7 13 6 -12 24 -26 39 -32z m-1176 29 c3 -5 1 -10 -4 -10 -6 0 -11 5 -11
10 0 6 2 10 4 10 3 0 8 -4 11 -10z m1263 -20 c11 -18 9 -19 -26 -16 -20 3 -39
5 -41 5 -2 1 4 10 13 20 20 22 36 19 54 -9z m512 -5 c0 -9 -7 -18 -15 -21 -11
-5 -12 -11 -4 -25 5 -11 6 -19 0 -19 -16 0 -21 29 -9 55 13 28 28 33 28 10z
m2590 -6 c0 -5 -4 -9 -10 -9 -5 0 -10 5 -10 11 0 5 -5 7 -12 3 -7 -4 -8 -3 -4
4 7 12 36 5 36 -9z m-5020 -3 c0 -3 -4 -8 -10 -11 -5 -3 -10 -1 -10 4 0 6 5
11 10 11 6 0 10 -2 10 -4z m680 -16 c0 -5 -5 -10 -11 -10 -5 0 -7 5 -4 10 3 6
8 10 11 10 2 0 4 -4 4 -10z m3120 -36 c0 -2 -7 -4 -15 -4 -8 0 -15 4 -15 10 0
5 7 7 15 4 8 -4 15 -8 15 -10z m-3240 -19 c-7 -8 -16 -15 -21 -15 -5 0 -1 9 8
20 9 11 19 17 21 15 3 -3 -1 -11 -8 -20z m1210 -22 c0 -13 -3 -13 -15 -3 -8 7
-12 16 -9 21 8 13 24 1 24 -18z m1435 17 c-3 -5 -12 -10 -18 -10 -7 0 -6 4 3
10 19 12 23 12 15 0z m88 -9 c3 -14 1 -18 -9 -14 -15 6 -18 16 -7 26 9 10 10
9 16 -12z m-753 -6 c7 -9 8 -15 2 -15 -5 0 -12 7 -16 15 -3 8 -4 15 -2 15 2 0
9 -7 16 -15z m1148 -15 c-2 -8 -12 -16 -22 -18 -14 -3 -17 0 -12 13 5 15 4 16
-8 6 -16 -13 -36 -7 -36 10 0 5 18 8 40 7 30 -2 40 -7 38 -18z m-2058 -8 c0
-14 -48 -33 -55 -22 -4 6 4 14 17 19 30 12 38 13 38 3z m857 -7 c0 -8 -4 -12
-9 -9 -5 3 -6 10 -3 15 9 13 12 11 12 -6z m783 11 c0 -2 -7 -6 -15 -10 -8 -3
-15 -1 -15 4 0 6 7 10 15 10 8 0 15 -2 15 -4z m-708 -64 c-7 -5 -10 -16 -6
-25 3 -9 11 -14 17 -10 6 3 7 1 3 -5 -12 -20 -33 -13 -38 13 -5 23 3 33 27 34
6 0 4 -3 -3 -7z m1388 -17 c0 -8 -4 -15 -10 -15 -5 0 -1 -9 11 -21 26 -26 16
-36 -39 -41 -42 -4 -43 -3 -37 22 12 48 75 94 75 55z m-2444 -15 c0 -11 -4
-20 -8 -20 -4 0 -8 2 -8 4 0 2 -3 11 -6 20 -4 10 -1 16 8 16 7 0 14 -9 14 -20z
m951 13 c-4 -3 0 -15 10 -25 15 -17 15 -18 -5 -18 -12 0 -22 -4 -22 -10 0 -5
5 -10 10 -10 6 0 9 -3 8 -7 -2 -5 2 -9 7 -10 6 -1 9 5 7 13 -3 17 10 18 25 3
7 -7 3 -18 -15 -36 -20 -20 -22 -27 -11 -34 9 -5 17 -3 22 6 14 25 30 17 23
-11 -4 -14 -2 -32 4 -39 9 -10 9 -19 0 -32 -11 -17 -11 -17 -6 0 4 12 2 16 -5
11 -6 -4 -15 0 -20 7 -6 10 -9 8 -9 -8 0 -13 4 -23 8 -23 16 0 52 -41 46 -52
-4 -6 -9 -5 -15 3 -7 12 -9 11 -10 -1 -1 -8 -1 -18 0 -22 0 -4 -6 -5 -14 -2
-8 4 -15 1 -15 -5 0 -6 -6 -11 -14 -11 -7 0 -19 -6 -25 -14 -22 -26 -60 -25
-81 1 -37 47 -47 173 -14 173 9 0 14 -10 13 -27 0 -25 -1 -26 -9 -8 -6 14 -8
4 -8 -35 0 -30 2 -47 5 -37 4 14 11 17 34 12 33 -7 38 1 12 21 -19 13 -28 98
-10 87 5 -3 7 0 5 8 -3 8 -14 12 -24 11 -13 -3 -8 5 16 25 19 15 35 34 35 40
0 13 34 63 43 63 3 0 2 -3 -1 -7z m-912 -13 c3 -5 2 -10 -4 -10 -5 0 -13 5
-16 10 -3 6 -2 10 4 10 5 0 13 -4 16 -10z m3389 2 c2 -4 -4 -9 -15 -9 -10 -1
-19 2 -19 8 0 11 27 12 34 1z m-2294 -69 c0 -30 -20 -40 -36 -18 -7 10 -20 15
-28 12 -10 -4 -14 0 -13 15 1 12 9 23 19 26 10 2 18 12 18 21 1 25 40 -29 40
-56z m-1030 47 c0 -5 -2 -10 -4 -10 -3 0 -8 5 -11 10 -3 6 -1 10 4 10 6 0 11
-4 11 -10z m3230 0 c13 -9 13 -10 0 -10 -8 0 -22 5 -30 10 -13 9 -13 10 0 10
8 0 22 -5 30 -10z m-3379 -9 c-8 -5 -20 -7 -28 -4 -21 8 -15 13 15 13 20 0 23
-3 13 -9z m98 -21 c10 -30 6 -36 -16 -22 -13 8 -14 52 -2 52 4 0 12 -13 18
-30z m-43 -5 c0 -14 -4 -25 -8 -25 -4 0 -8 11 -8 25 0 14 4 25 8 25 4 0 8 -11
8 -25z m3392 -12 c-8 -10 -14 -11 -25 -1 -13 10 -12 14 3 25 22 16 39 -4 22
-24z m-1168 16 c13 -9 12 -10 -2 -5 -10 3 -18 1 -18 -4 0 -6 6 -10 14 -10 8 0
18 -5 21 -11 9 -13 -27 -8 -37 6 -10 13 -10 35 0 35 4 0 14 -5 22 -11z m1096
-9 c0 -13 -7 -20 -21 -21 -13 0 -8 -4 13 -10 18 -5 30 -14 27 -19 -8 -13 -63
0 -115 27 -25 14 -37 22 -27 19 10 -3 28 1 40 9 12 8 35 15 52 15 24 0 31 -4
31 -20z m-4671 -11 c4 -6 13 -8 20 -5 8 3 19 -2 25 -9 7 -8 17 -13 23 -12 6 1
11 -3 12 -10 0 -6 3 -15 8 -19 4 -4 7 -15 7 -25 0 -10 6 -33 14 -51 8 -18 20
-53 27 -78 7 -25 21 -54 31 -66 10 -11 18 -31 18 -45 0 -14 15 -40 35 -61 22
-23 46 -67 65 -117 28 -76 28 -81 10 -81 -10 0 -22 5 -26 11 -4 7 -10 7 -16 1
-6 -6 -17 -8 -26 -5 -10 4 -13 2 -8 -5 4 -7 2 -12 -3 -12 -6 0 -11 11 -11 25
0 14 -5 25 -10 25 -6 0 -9 3 -9 8 3 20 -3 32 -17 32 -11 0 -14 6 -8 23 4 12
12 26 18 30 7 6 4 7 -6 3 -28 -9 -46 3 -70 46 l-23 41 -6 -34 -6 -34 -15 34
c-9 19 -14 40 -11 47 2 7 0 15 -6 19 -6 3 -8 17 -5 29 3 14 -1 29 -10 39 -17
17 -36 60 -36 83 0 11 7 13 28 8 24 -7 26 -6 13 9 -7 10 -22 17 -32 17 -11 0
-21 9 -25 24 -8 34 4 69 22 62 19 -7 7 14 -18 32 -10 7 -16 18 -13 23 8 12 32
11 40 -2z m2142 -5 c-3 -3 -12 -4 -19 -1 -8 3 -5 6 6 6 11 1 17 -2 13 -5z
m198 -14 c-3 -5 -11 -10 -16 -10 -6 0 -7 5 -4 10 3 6 11 10 16 10 6 0 7 -4 4
-10z m85 -10 c0 -5 -4 -10 -10 -10 -5 0 -10 5 -10 10 0 6 5 10 10 10 6 0 10
-4 10 -10z m2160 -3 c0 -7 -9 -13 -21 -14 -17 -2 -18 1 -9 13 15 17 30 18 30
1z m-2512 -14 c16 -16 16 -16 0 -10 -20 7 -35 -9 -16 -16 9 -4 10 -6 1 -6 -16
-1 -24 14 -17 33 8 20 11 20 32 -1z m2589 -9 c-3 -3 -12 -4 -19 -1 -8 3 -5 6
6 6 11 1 17 -2 13 -5z m-2208 -47 c12 -15 5 -27 -17 -27 -11 0 -12 3 -3 14 9
11 9 15 -1 19 -8 3 -8 6 -2 6 6 1 17 -5 23 -12z m41 9 c0 -3 -4 -8 -10 -11 -5
-3 -10 -1 -10 4 0 6 5 11 10 11 6 0 10 -2 10 -4z m-100 -51 c0 -8 -4 -15 -10
-15 -5 0 -10 7 -10 15 0 8 5 15 10 15 6 0 10 -7 10 -15z m-1303 -11 c18 -3 38
-12 44 -20 6 -8 18 -14 25 -14 16 0 17 -4 5 -28 -5 -9 -12 -24 -14 -33 -7 -21
-111 -72 -162 -79 -31 -4 -39 -9 -37 -23 2 -10 -3 -17 -13 -17 -8 0 -15 5 -15
10 0 16 -28 12 -38 -5 -5 -10 -27 -17 -60 -19 -29 -1 -48 0 -41 4 8 6 8 9 0
14 -6 4 -16 17 -22 28 -9 17 -9 20 4 15 10 -4 17 2 21 20 6 20 9 23 21 13 12
-10 15 -9 15 3 0 8 9 17 21 20 15 4 19 2 15 -9 -8 -22 17 -17 39 9 20 23 21
25 23 66 2 18 6 22 22 18 11 -3 20 -1 20 4 0 14 51 36 74 32 11 -2 35 -6 53
-9z m2601 -25 c-3 -8 -7 -3 -11 10 -4 17 -3 21 5 13 5 -5 8 -16 6 -23z m-2228
-11 c0 -6 3 -8 7 -5 3 4 17 0 30 -8 14 -10 36 -14 53 -11 17 2 30 0 30 -6 0
-6 9 -8 20 -5 13 3 20 0 20 -10 0 -8 -4 -11 -10 -8 -5 3 -10 1 -10 -4 0 -6 9
-11 20 -11 10 0 24 -9 30 -19 12 -24 13 -34 1 -27 -4 3 -19 -6 -32 -20 -12
-13 -28 -23 -34 -20 -6 2 -17 -4 -23 -15 -7 -11 -18 -16 -28 -12 -12 4 -15 0
-12 -17 1 -13 -2 -25 -9 -27 -6 -2 -10 4 -9 14 2 10 1 13 -1 7 -2 -5 -17 -18
-34 -28 -28 -17 -31 -36 -6 -36 7 0 23 -9 36 -19 l24 -18 -68 -13 c-42 -8 -62
-16 -54 -21 7 -4 16 -6 20 -3 4 2 10 0 13 -5 3 -5 -14 -12 -39 -15 -48 -8 -56
-21 -27 -42 14 -11 11 -12 -25 -7 -39 5 -41 4 -36 -16 4 -17 2 -20 -11 -15 -9
3 -16 2 -16 -4 0 -5 -19 -3 -44 6 -38 14 -48 14 -72 2 -46 -23 -47 -23 -40
-11 11 18 -118 15 -133 -3 -13 -16 -2 -16 32 -1 11 5 24 2 36 -9 10 -9 23 -16
29 -16 7 0 12 -4 12 -10 0 -11 -64 -30 -68 -19 -2 4 -21 -2 -44 -13 -58 -28
-77 -30 -95 -8 -18 21 -35 17 -69 -16 -12 -13 -33 -24 -46 -25 -13 0 -41 -7
-63 -14 l-40 -14 38 2 c44 3 46 0 10 -14 -23 -8 -63 -1 -90 16 -9 5 40 83 59
95 29 18 88 40 109 40 9 0 22 7 29 15 7 8 21 15 32 15 10 0 16 5 13 10 -3 6 1
10 10 10 10 0 13 -5 9 -12 -6 -10 -5 -10 8 -1 8 7 18 10 21 6 4 -3 7 -1 7 6 0
7 5 9 10 6 6 -3 10 -1 10 5 0 7 6 10 13 7 6 -2 21 1 32 6 19 11 24 12 53 15 7
1 11 6 8 11 -3 5 0 9 7 8 33 -1 48 4 41 14 -4 7 0 9 14 5 24 -8 61 9 81 36 7
11 23 23 36 28 15 6 36 37 66 99 24 50 49 91 56 91 7 0 13 5 13 11 0 11 70 79
83 79 4 0 7 -5 7 -12z m348 -70 c3 -16 -44 -32 -53 -18 -2 4 -16 5 -29 3 -21
-4 -24 -2 -19 16 5 21 22 24 36 6 4 -5 5 3 1 18 l-6 28 33 -19 c19 -10 35 -26
37 -34z m211 -32 c9 -10 20 -11 50 -3 35 9 42 8 71 -15 27 -21 34 -34 35 -68
3 -50 19 -83 48 -95 12 -6 26 -20 32 -32 5 -13 13 -23 17 -23 12 0 9 -58 -3
-66 -6 -3 -15 -1 -19 6 -13 21 -43 -35 -37 -69 5 -22 0 -34 -19 -52 -47 -43
-57 -75 -43 -124 7 -24 17 -42 21 -39 4 3 5 -2 2 -10 -7 -18 7 -21 23 -5 7 7
12 6 17 -6 3 -9 2 -13 -4 -10 -5 3 -16 -8 -25 -24 -19 -38 -25 -42 -102 -56
-64 -12 -64 -12 -59 10 5 21 2 22 -62 24 -87 2 -101 7 -95 31 4 15 0 20 -15
20 -24 0 -34 21 -37 76 -3 46 -46 120 -77 130 -11 3 -17 12 -14 19 8 22 16 76
21 140 6 85 9 99 21 110 6 6 19 33 29 61 18 51 19 52 74 64 31 7 61 14 66 15
27 9 74 4 84 -9z m581 -17 c0 -15 -18 -19 -23 -6 -3 8 1 14 9 14 8 0 14 -4 14
-8z m-1620 -39 c0 -5 -4 -10 -10 -10 -5 0 -10 5 -10 10 0 6 5 10 10 10 6 0 10
-4 10 -10z m3924 -17 c10 -26 -9 -37 -82 -46 -96 -11 -122 -10 -149 8 -34 23
-20 35 45 36 31 1 71 5 87 9 54 14 92 11 99 -7z m-1091 -33 c-7 -25 -33 -27
-28 -2 2 9 4 18 4 20 1 1 7 2 15 2 9 0 12 -7 9 -20z m-88 0 c3 -5 1 -10 -4
-10 -6 0 -11 5 -11 10 0 6 2 10 4 10 3 0 8 -4 11 -10z m45 0 c0 -5 -4 -10 -10
-10 -5 0 -10 5 -10 10 0 6 5 10 10 10 6 0 10 -4 10 -10z m-2601 -26 c-13 -16
-12 -16 8 -6 21 12 22 11 7 -15 -7 -16 -14 -33 -14 -39 0 -6 -7 -18 -17 -25
-15 -13 -16 -11 -11 14 3 15 3 27 1 27 -11 0 -50 -25 -64 -42 -22 -25 -32 -23
-17 5 6 12 13 29 14 37 2 8 7 16 11 17 4 2 26 14 48 27 43 27 56 26 34 0z
m451 18 c0 -4 -10 -9 -22 -9 -18 -2 -20 0 -8 7 18 12 30 13 30 2z m-770 -12
c0 -5 -4 -10 -10 -10 -5 0 -10 5 -10 10 0 6 5 10 10 10 6 0 10 -4 10 -10z
m2800 1 c0 -13 -41 -41 -51 -36 -4 3 -5 14 -2 25 5 20 53 30 53 11z m-1085
-41 c8 0 19 -8 24 -19 8 -14 6 -23 -9 -36 -11 -10 -17 -22 -14 -26 3 -5 -2 -6
-10 -3 -9 3 -16 10 -16 15 0 4 -6 6 -12 4 -9 -4 -14 11 -15 50 -2 54 -2 54 17
35 11 -11 27 -20 35 -20z m357 8 c-30 -12 -35 -8 -17 12 14 16 20 17 26 8 5
-8 2 -16 -9 -20z m928 22 c-8 -5 -22 -10 -30 -10 -13 0 -13 1 0 10 8 5 22 10
30 10 13 0 13 -1 0 -10z m-1064 -33 c3 -23 -3 -21 -17 4 -8 17 -8 20 2 17 7
-2 13 -12 15 -21z m-1899 -33 c2 -13 1 -15 -4 -4 -3 8 -11 19 -17 23 -7 6 -6
7 4 4 8 -2 16 -12 17 -23z m786 19 c-7 -2 -19 -2 -25 0 -7 3 -2 5 12 5 14 0
19 -2 13 -5z m1052 -23 c13 -6 15 -9 5 -9 -13 -1 -13 -2 0 -11 11 -7 8 -10
-16 -10 -37 0 -48 9 -33 27 13 15 16 15 44 3z m330 -10 c3 -5 1 -10 -4 -10 -6
0 -11 5 -11 10 0 6 2 10 4 10 3 0 8 -4 11 -10z m-655 -31 c0 -11 -4 -18 -10
-14 -5 3 -7 12 -3 20 7 21 13 19 13 -6z m-1476 -31 c-4 -6 -10 -5 -15 3 -14
22 -10 33 6 19 8 -7 12 -17 9 -22z m686 6 c0 -2 -9 0 -20 6 -11 6 -20 13 -20
16 0 2 9 0 20 -6 11 -6 20 -13 20 -16z m857 6 c1 -11 -2 -20 -6 -20 -13 0 -32
26 -24 33 13 14 29 7 30 -13z m323 -16 c0 -12 -2 -12 -14 -2 -8 7 -12 16 -9
21 7 11 23 -2 23 -19z m1948 -5 c5 -33 30 -51 53 -38 23 12 24 1 3 -29 -9 -13
-14 -32 -11 -43 3 -11 0 -25 -7 -32 -6 -6 -17 -25 -24 -42 -7 -16 -50 -67 -95
-112 -77 -77 -84 -82 -112 -75 -28 8 -30 11 -27 54 3 42 2 46 -23 50 -30 6
-65 -23 -65 -54 0 -22 -38 -24 -66 -3 -19 14 -19 14 4 30 12 9 22 25 22 35 0
10 5 22 12 26 17 11 -19 33 -43 27 -18 -5 -49 12 -49 27 0 4 9 17 20 30 12 13
19 29 16 35 -2 7 0 18 5 26 7 11 15 7 38 -18 l28 -33 24 21 c28 25 104 65 95
51 -3 -6 5 -5 18 1 13 7 22 15 20 18 -2 4 6 9 17 12 13 4 18 10 13 18 -5 9 4
11 39 6 42 -6 47 -4 47 12 0 38 43 38 48 0z m-308 1 c13 -8 13 -10 -2 -10 -9
0 -20 5 -23 10 -8 13 5 13 25 0z m-1940 -16 c0 -7 -25 -29 -53 -45 -16 -9 -17
-8 -5 10 7 12 18 21 25 21 7 0 13 5 13 10 0 6 5 10 10 10 6 0 10 -3 10 -6z
m96 -26 c-1 -13 -6 -22 -9 -20 -4 1 -11 2 -15 2 -4 0 -8 9 -8 20 0 13 7 20 18
20 13 0 17 -6 14 -22z m964 -3 c0 -9 -6 -12 -15 -9 -8 4 -12 10 -9 15 8 14 24
10 24 -6z m-3200 -25 c12 -16 28 -30 35 -30 8 0 17 -5 21 -12 5 -7 2 -9 -8 -6
-8 4 -21 -2 -28 -13 -10 -13 -17 -15 -27 -7 -9 7 -13 7 -13 0 0 -6 -7 -9 -15
-6 -8 4 -15 1 -15 -5 0 -6 -4 -11 -10 -11 -5 0 -10 7 -10 15 0 8 5 15 10 15 6
0 10 5 10 11 0 5 -6 7 -12 3 -8 -4 -10 -3 -5 2 5 5 14 9 20 9 5 0 12 6 15 13
2 6 -3 12 -12 12 -18 0 -19 2 -10 24 9 25 30 19 54 -14z m2052 5 c3 -13 1 -22
-3 -19 -9 5 -13 44 -5 44 2 0 6 -11 8 -25z m1908 15 c-8 -5 -19 -10 -25 -10
-5 0 -3 5 5 10 8 5 20 10 25 10 6 0 3 -5 -5 -10z m60 1 c0 -5 -6 -11 -13 -14
-8 -3 -14 1 -14 9 0 8 6 14 14 14 7 0 13 -4 13 -9z m-177 -31 c-3 -12 -8 -19
-11 -16 -5 6 5 36 12 36 2 0 2 -9 -1 -20z m129 8 c-13 -15 -72 -51 -72 -44 0
5 71 56 79 56 2 0 -1 -6 -7 -12z m-3145 -24 c-3 -3 -12 -4 -19 -1 -8 3 -5 6 6
6 11 1 17 -2 13 -5z m-42 -66 c35 -16 35 -60 -1 -77 -26 -12 -49 -6 -39 10 3
5 -1 6 -10 3 -15 -6 -55 21 -55 38 0 17 28 7 33 -13 7 -25 30 -16 25 9 -2 10
1 22 7 29 13 15 9 15 40 1z m1585 -14 c0 -8 -4 -12 -10 -9 -5 3 -10 13 -10 21
0 8 5 12 10 9 6 -3 10 -13 10 -21z m-2156 1 c3 -9 0 -15 -9 -15 -9 0 -12 6 -9
15 4 8 7 15 9 15 2 0 5 -7 9 -15z m1961 6 c-6 -4 -25 -13 -43 -19 -26 -9 -33
-9 -30 0 4 12 37 25 68 27 8 1 10 -2 5 -8z m-1660 -37 c29 -15 115 -21 135 -9
16 10 12 -12 -5 -29 -13 -13 -14 -20 -4 -38 12 -22 12 -22 -22 3 -48 36 -108
69 -124 69 -8 0 -17 5 -20 10 -9 14 6 12 40 -6z m825 -6 c0 -5 5 -6 11 -3 6 4
25 4 43 1 26 -5 35 -14 50 -51 10 -24 18 -48 18 -52 0 -4 -19 -18 -41 -31
l-41 -23 -12 26 c-6 14 -18 25 -27 25 -9 0 -25 18 -35 40 -16 32 -17 45 -8 65
11 24 42 26 42 3z m577 -10 c-3 -8 -6 -5 -6 6 -1 11 2 17 5 13 3 -3 4 -12 1
-19z m-42 2 c9 8 15 8 20 0 3 -5 1 -10 -5 -10 -6 0 -8 -5 -5 -10 4 -6 4 -18 1
-27 -6 -14 -8 -14 -21 3 -8 10 -14 28 -14 39 0 11 3 14 6 7 4 -9 8 -10 18 -2z
m746 -10 c21 -17 21 -19 6 -20 -10 0 -27 9 -39 20 -30 27 0 28 33 0z m-451
-10 c8 -5 11 -10 5 -10 -5 0 -17 5 -25 10 -8 5 -10 10 -5 10 6 0 17 -5 25 -10z
m-2066 -58 c-13 -52 -23 -69 -42 -74 -14 -4 -23 1 -30 18 -8 15 -23 25 -47 30
-38 7 -43 30 -6 28 12 0 34 11 49 25 25 24 29 25 55 13 23 -11 26 -18 21 -40z
m2553 36 c-3 -8 -6 -5 -6 6 -1 11 2 17 5 13 3 -3 4 -12 1 -19z m-810 -20 c-3
-8 -6 -5 -6 6 -1 11 2 17 5 13 3 -3 4 -12 1 -19z m-1264 -3 c8 -8 17 -12 20
-9 3 3 8 1 11 -5 10 -15 -33 -24 -49 -11 -17 14 -20 40 -6 40 5 0 16 -7 24
-15z m1877 1 c0 -3 -4 -8 -10 -11 -5 -3 -10 -1 -10 4 0 6 5 11 10 11 6 0 10
-2 10 -4z m-325 -16 c3 -5 1 -10 -4 -10 -6 0 -11 5 -11 10 0 6 2 10 4 10 3 0
8 -4 11 -10z m-1401 -35 c3 3 4 2 1 -1 -4 -7 38 -44 49 -44 10 0 7 45 -4 56
-7 7 2 9 25 6 23 -3 35 -10 36 -21 1 -13 2 -13 6 2 6 24 21 18 41 -16 15 -24
15 -29 2 -37 -18 -12 -35 -8 -35 8 0 28 -21 10 -30 -25 -14 -53 -22 -63 -52
-63 -18 0 -24 4 -19 15 3 9 0 15 -9 15 -8 0 -15 5 -15 10 0 17 27 11 34 -7 5
-13 9 -14 19 -4 9 9 3 20 -28 50 -22 21 -50 43 -62 50 -13 6 -23 16 -23 22 0
5 13 3 29 -5 16 -9 31 -13 35 -11z m1380 10 c20 -9 34 -20 31 -25 -9 -15 -42
-12 -59 6 -9 8 -20 12 -26 9 -5 -3 -10 -2 -10 4 0 5 6 12 13 14 6 3 13 6 13 6
1 1 18 -6 38 -14z m350 9 c9 -3 16 -10 16 -16 0 -5 -4 -6 -10 -3 -5 3 -10 1
-10 -4 0 -6 6 -11 13 -11 8 0 7 -3 -3 -9 -16 -11 -33 -4 -24 10 3 5 0 16 -6
24 -13 16 -3 19 24 9z m-1454 -18 c0 -2 -7 -6 -15 -10 -8 -3 -15 -1 -15 4 0 6
7 10 15 10 8 0 15 -2 15 -4z m893 -56 c-3 -10 -15 -22 -28 -28 -20 -9 -22 -8
-18 9 3 10 12 19 19 19 8 0 14 10 14 23 0 16 3 18 9 8 5 -7 6 -21 4 -31z
m-1233 -12 c0 -15 5 -18 20 -13 12 4 20 2 20 -5 0 -6 -4 -8 -10 -5 -5 3 -10 1
-10 -4 0 -21 -20 -10 -26 14 -3 14 -9 23 -13 21 -4 -3 -12 4 -19 14 -11 18
-10 19 13 8 14 -6 25 -20 25 -30z m-430 17 c-7 -8 -18 -15 -24 -15 -6 0 -2 7
8 15 25 19 32 19 16 0z m3680 5 c0 -5 -4 -10 -10 -10 -5 0 -10 5 -10 10 0 6 5
10 10 10 6 0 10 -4 10 -10z m250 -32 c0 -19 -42 -58 -62 -58 -16 0 -17 3 -7
23 21 39 69 64 69 35z m-1605 -58 c3 -5 1 -10 -4 -10 -6 0 -11 5 -11 10 0 6 2
10 4 10 3 0 8 -4 11 -10z"/>
<path d="M2457 3953 c-4 -3 -7 -11 -7 -17 0 -6 5 -5 12 2 6 6 9 14 7 17 -3 3
-9 2 -12 -2z"/>
<path d="M2330 3835 c0 -8 4 -15 10 -15 5 0 7 7 4 15 -4 8 -8 15 -10 15 -2 0
-4 -7 -4 -15z"/>
<path d="M2775 3804 c-6 -2 -9 -20 -7 -39 4 -30 10 -38 40 -51 20 -8 41 -13
48 -10 21 8 9 45 -24 76 -33 30 -38 32 -57 24z"/>
<path d="M2570 3710 c-12 -8 -9 -9 12 -8 15 1 24 6 22 10 -7 10 -16 10 -34 -2z"/>
<path d="M2870 3641 c0 -6 4 -12 10 -16 13 -8 61 5 54 16 -7 12 -64 12 -64 0z"/>
<path d="M2950 3634 c0 -2 9 -8 20 -14 11 -6 20 -7 20 -2 0 6 -9 12 -20 15
-11 3 -20 3 -20 1z"/>
<path d="M1976 3966 c5 -27 3 -41 -7 -48 -11 -8 -10 -9 4 -4 16 5 17 1 12 -36
-6 -35 -4 -40 8 -30 7 7 16 10 18 8 2 -2 5 23 7 55 2 46 -1 59 -12 59 -8 0
-20 8 -26 18 -8 13 -9 8 -4 -22z"/>
<path d="M1950 3776 c0 -2 7 -9 15 -16 9 -7 15 -8 15 -2 0 5 -7 12 -15 16 -8
3 -15 4 -15 2z"/>
<path d="M1969 3717 c6 -8 8 -17 4 -20 -3 -4 -1 -7 5 -7 14 0 14 2 6 24 -3 9
-11 16 -16 16 -7 0 -6 -5 1 -13z"/>
<path d="M1996 3686 c-7 -30 -1 -46 13 -30 4 5 5 20 1 34 l-6 25 -8 -29z"/>
<path d="M2056 3607 c3 -10 9 -15 12 -12 3 3 0 11 -7 18 -10 9 -11 8 -5 -6z"/>
<path d="M3630 3820 c0 -5 5 -10 10 -10 6 0 10 5 10 10 0 6 -4 10 -10 10 -5 0
-10 -4 -10 -10z"/>
<path d="M3668 3813 c6 -2 18 -2 25 0 6 3 1 5 -13 5 -14 0 -19 -2 -12 -5z"/>
<path d="M3904 3725 c-16 -13 -24 -24 -17 -25 6 0 13 5 15 10 2 6 13 12 26 13
22 1 29 12 14 21 -5 3 -21 -6 -38 -19z"/>
<path d="M1580 3427 c0 -7 -9 -20 -20 -30 -41 -34 -8 -57 46 -31 37 18 54 51
33 65 -21 13 -59 11 -59 -4z"/>
<path d="M1587 3293 c-13 -12 -7 -23 13 -23 13 0 18 5 14 15 -7 16 -17 19 -27
8z"/>
<path d="M1394 3268 c-4 -15 -1 -25 12 -35 10 -7 12 -13 6 -13 -7 0 -11 -5 -9
-11 1 -6 -8 -13 -21 -15 -15 -3 -21 0 -16 7 5 8 1 8 -14 0 -29 -15 -37 -14
-21 5 10 13 10 17 -2 25 -20 12 -53 11 -67 -3 -16 -16 -15 -28 3 -28 11 0 14
-7 9 -24 -7 -30 21 -43 46 -21 9 8 20 12 23 8 13 -12 7 -22 -14 -25 -27 -4
-44 -30 -35 -53 5 -15 9 -15 23 -4 9 8 14 9 10 3 -8 -13 19 -27 34 -18 5 3 9
11 9 19 0 8 14 29 30 47 31 33 35 54 24 121 -7 42 -19 48 -30 15z m-4 -112 c0
-2 -7 -6 -15 -10 -8 -3 -15 -1 -15 4 0 6 7 10 15 10 8 0 15 -2 15 -4z"/>
<path d="M1608 3259 c-27 -15 -22 -39 8 -39 18 0 25 4 21 14 -3 7 0 19 6 25
14 14 -11 15 -35 0z"/>
<path d="M1146 3141 c-4 -7 -5 -15 -2 -18 9 -9 19 4 14 18 -4 11 -6 11 -12 0z"/>
<path d="M1147 3096 c-4 -10 -3 -15 3 -11 6 3 10 1 10 -4 0 -6 10 -11 23 -10
15 0 17 2 7 6 -8 4 -20 13 -26 21 -9 13 -12 13 -17 -2z"/>
<path d="M614 3230 c0 -13 4 -16 10 -10 7 7 7 13 0 20 -6 6 -10 3 -10 -10z"/>
<path d="M378 3033 c7 -3 16 -2 19 1 4 3 -2 6 -13 5 -11 0 -14 -3 -6 -6z"/>
<path d="M2412 3305 c0 -16 2 -22 5 -12 2 9 2 23 0 30 -3 6 -5 -1 -5 -18z"/>
<path d="M3147 3082 c-3 -4 3 -17 13 -30 21 -26 36 -13 20 18 -11 21 -25 26
-33 12z"/>
<path d="M3120 3040 c0 -5 5 -10 11 -10 5 0 7 5 4 10 -3 6 -8 10 -11 10 -2 0
-4 -4 -4 -10z"/>
<path d="M2830 3050 c-13 -8 -13 -11 -1 -19 8 -5 10 -14 6 -21 -5 -9 -4 -11 4
-6 17 11 62 -2 60 -17 -1 -7 1 -24 5 -39 7 -25 13 -28 52 -28 32 0 46 -5 53
-19 14 -25 51 -34 53 -13 0 10 2 24 2 32 3 25 -75 91 -101 87 -13 -2 -23 0
-23 5 0 6 -11 7 -26 4 -17 -5 -23 -3 -19 4 9 14 -13 40 -34 40 -9 0 -23 -5
-31 -10z m50 -14 c0 -3 -4 -8 -10 -11 -5 -3 -10 -1 -10 4 0 6 5 11 10 11 6 0
10 -2 10 -4z"/>
<path d="M3240 1896 c0 -3 9 -10 20 -16 11 -6 20 -8 20 -6 0 3 -9 10 -20 16
-11 6 -20 8 -20 6z"/>
<path d="M2010 3105 c0 -2 10 -10 23 -16 20 -11 21 -11 8 4 -13 16 -31 23 -31
12z"/>
<path d="M4570 2891 c0 -12 5 -21 10 -21 6 0 10 6 10 14 0 8 -4 18 -10 21 -5
3 -10 -3 -10 -14z"/>
<path d="M4538 2866 c-4 -19 -1 -23 18 -22 17 1 20 4 13 18 -15 28 -26 29 -31
4z"/>
<path d="M4576 2821 c-4 -7 -5 -15 -2 -18 9 -9 19 4 14 18 -4 11 -6 11 -12 0z"/>
<path d="M4498 2798 c-5 -13 27 -48 43 -48 12 0 22 20 14 28 -3 3 -10 0 -16
-8 -7 -11 -8 -9 -7 10 3 26 -26 42 -34 18z"/>
<path d="M4400 2731 c0 -6 5 -13 10 -16 6 -3 10 1 10 9 0 9 -4 16 -10 16 -5 0
-10 -4 -10 -9z"/>
<path d="M770 2769 c0 -16 4 -28 9 -25 8 5 3 56 -5 56 -2 0 -4 -14 -4 -31z"/>
<path d="M3860 2526 c0 -2 8 -10 18 -17 15 -13 16 -12 3 4 -13 16 -21 21 -21
13z"/>
<path d="M535 2019 c-4 -6 -5 -12 -2 -15 2 -3 7 2 10 11 7 17 1 20 -8 4z"/>
<path d="M600 1886 c0 -8 4 -17 9 -21 6 -3 9 4 8 15 -1 23 -17 28 -17 6z"/>
<path d="M702 1850 c0 -14 2 -19 5 -12 2 6 2 18 0 25 -3 6 -5 1 -5 -13z"/>
<path d="M677 1813 c-13 -12 -7 -33 9 -33 9 0 12 -5 8 -12 -4 -7 -3 -8 5 -4 6
4 9 12 6 17 -4 5 -1 9 4 9 6 0 11 5 11 11 0 5 -4 7 -10 4 -5 -3 -10 -1 -10 4
0 12 -13 14 -23 4z"/>
<path d="M640 1734 l-25 -15 25 7 c28 7 35 12 29 18 -2 2 -15 -2 -29 -10z"/>
<path d="M736 1561 c-4 -7 -5 -15 -2 -18 9 -9 19 4 14 18 -4 11 -6 11 -12 0z"/>
<path d="M730 1458 c0 -18 -2 -20 -10 -8 -5 8 -11 12 -13 10 -7 -7 11 -50 21
-50 11 0 43 56 35 64 -14 14 -33 5 -33 -16z"/>
<path d="M600 1421 c0 -6 5 -13 10 -16 6 -3 10 1 10 9 0 9 -4 16 -10 16 -5 0
-10 -4 -10 -9z"/>
<path d="M1787 1903 c-4 -3 -7 -11 -7 -17 0 -6 5 -5 12 2 6 6 9 14 7 17 -3 3
-9 2 -12 -2z"/>
<path d="M1663 1845 c-9 -10 -9 -16 -2 -20 14 -9 22 0 17 18 -2 13 -5 13 -15
2z"/>
<path d="M1570 1825 c-7 -8 -9 -15 -4 -15 5 0 2 -5 -6 -11 -12 -9 -12 -10 3
-5 10 3 22 6 25 6 4 0 13 9 20 20 11 17 10 20 -7 20 -10 0 -24 -7 -31 -15z"/>
<path d="M1470 1793 c-30 -15 -49 -28 -42 -31 6 -2 19 1 29 7 12 6 25 6 34 0
22 -14 26 -11 31 21 3 17 4 30 3 30 0 0 -25 -12 -55 -27z"/>
<path d="M1655 1800 c-3 -6 1 -7 9 -4 18 7 21 14 7 14 -6 0 -13 -4 -16 -10z"/>
<path d="M1560 1764 c0 -3 7 -12 15 -20 16 -17 18 -14 9 10 -6 15 -24 23 -24
10z"/>
<path d="M1255 1465 l6 -40 -20 25 c-12 14 -21 28 -21 33 0 14 -28 7 -34 -9
-11 -29 -6 -43 26 -79 28 -32 33 -35 46 -21 13 12 13 18 2 30 -8 11 -9 16 -1
16 14 0 14 50 0 70 -8 11 -9 5 -4 -25z"/>
<path d="M1150 1299 c0 -8 5 -21 10 -29 8 -12 9 -10 7 7 -4 26 -17 43 -17 22z"/>
<path d="M1199 1200 c-1 -8 -1 -19 0 -23 1 -4 -5 -10 -13 -13 -12 -5 -13 -11
-4 -29 12 -27 37 -41 39 -22 3 28 -4 73 -12 87 -7 13 -9 13 -10 0z"/>
<path d="M4672 1161 c-11 -6 -11 -10 0 -19 10 -7 18 -6 33 5 15 12 16 14 3 10
-9 -3 -18 -2 -20 3 -2 5 -9 6 -16 1z"/>
<path d="M4635 1126 c-18 -13 -18 -14 8 -9 15 3 24 9 21 14 -7 12 -7 12 -29
-5z"/>
<path d="M4665 910 c3 -5 10 -10 16 -10 5 0 9 5 9 10 0 6 -7 10 -16 10 -8 0
-12 -4 -9 -10z"/>
<path d="M4240 730 c0 -5 5 -10 10 -10 6 0 10 5 10 10 0 6 -4 10 -10 10 -5 0
-10 -4 -10 -10z"/>
<path d="M1935 1390 c3 -5 8 -10 11 -10 2 0 4 5 4 10 0 6 -5 10 -11 10 -5 0
-7 -4 -4 -10z"/>
<path d="M2586 1035 c24 -39 24 -40 24 -28 0 6 -9 21 -21 34 l-20 24 17 -30z"/>
<path d="M2580 940 c0 -5 5 -10 10 -10 6 0 10 5 10 10 0 6 -4 10 -10 10 -5 0
-10 -4 -10 -10z"/>
<path d="M361 864 c0 -11 3 -14 6 -6 3 7 2 16 -1 19 -3 4 -6 -2 -5 -13z"/>
<path d="M370 790 c0 -5 5 -10 11 -10 5 0 7 5 4 10 -3 6 -8 10 -11 10 -2 0 -4
-4 -4 -10z"/>
<path d="M1724 888 c-3 -10 -10 -18 -15 -18 -5 0 -9 -7 -9 -15 0 -8 4 -15 8
-15 15 0 62 25 62 33 0 5 5 5 11 1 7 -4 10 1 7 11 -4 25 -56 27 -64 3z"/>
<path d="M1840 855 c-7 -9 -11 -17 -9 -20 3 -2 10 5 17 15 14 24 10 26 -8 5z"/>
<path d="M1740 836 c0 -4 7 -14 15 -23 8 -8 13 -18 10 -23 -3 -4 4 -6 15 -3
11 3 20 10 20 15 0 5 -4 6 -10 3 -5 -3 -10 2 -10 11 0 10 -3 14 -7 11 -3 -4
-12 -2 -20 4 -7 6 -13 8 -13 5z"/>
<path d="M1700 765 c0 -9 -6 -12 -15 -9 -16 7 -21 -11 -6 -21 12 -7 43 24 36
36 -9 13 -15 11 -15 -6z"/>
<path d="M1645 680 c-3 -5 -2 -10 4 -10 5 0 13 5 16 10 3 6 2 10 -4 10 -5 0
-13 -4 -16 -10z"/>
<path d="M1648 648 c5 -5 16 -8 23 -6 8 3 3 7 -10 11 -17 4 -21 3 -13 -5z"/>
<path d="M1658 583 c6 -2 18 -2 25 0 6 3 1 5 -13 5 -14 0 -19 -2 -12 -5z"/>
<path d="M2520 602 c0 -11 7 -23 16 -26 40 -15 45 0 9 27 -24 17 -25 17 -25
-1z"/>
<path d="M2011 264 c0 -11 3 -14 6 -6 3 7 2 16 -1 19 -3 4 -6 -2 -5 -13z"/>
<path d="M3933 4308 c2 -7 13 -12 24 -10 11 1 26 -4 33 -13 7 -8 17 -15 23
-15 5 0 -2 11 -17 25 -28 26 -71 35 -63 13z"/>
<path d="M4305 4304 c89 -65 126 -89 240 -158 191 -116 242 -153 277 -202 33
-46 69 -73 148 -110 58 -27 130 -85 205 -164 72 -75 95 -108 95 -137 0 -26 12
-30 30 -8 16 20 54 19 71 -1 13 -16 90 -231 115 -321 8 -29 23 -72 33 -95 10
-24 31 -79 46 -123 16 -44 31 -82 35 -85 15 -11 44 -122 61 -230 10 -68 33
-156 54 -215 33 -90 36 -105 28 -151 -6 -36 -5 -61 3 -85 10 -27 13 111 13
717 l1 751 -22 29 c-13 16 -37 43 -55 60 -18 17 -33 34 -33 36 0 3 -20 27 -45
54 -25 26 -45 52 -45 58 0 11 -60 66 -72 66 -4 0 -8 -4 -8 -10 0 -5 7 -10 15
-10 8 0 15 -7 15 -15 0 -8 5 -15 10 -15 6 0 10 -6 10 -13 0 -7 18 -32 40 -55
23 -23 38 -42 35 -42 -3 0 6 -11 20 -25 14 -14 25 -30 25 -34 0 -4 14 -22 30
-40 17 -17 27 -31 23 -31 -4 0 2 -7 13 -15 10 -8 14 -15 7 -15 -10 0 -48 43
-181 210 -149 187 -164 204 -284 340 -27 30 -48 60 -48 67 0 7 -7 13 -15 13
-8 0 -15 5 -15 10 0 7 -156 10 -447 10 -397 -1 -446 -3 -428 -16z"/>
<path d="M2430 4290 c0 -5 5 -10 11 -10 5 0 7 5 4 10 -3 6 -8 10 -11 10 -2 0
-4 -4 -4 -10z"/>
<path d="M5251 4291 c-8 -5 -9 -11 -3 -15 5 -3 12 1 16 9 6 17 6 18 -13 6z"/>
<path d="M4150 4141 c0 -5 7 -12 16 -15 24 -9 28 -7 14 9 -14 17 -30 20 -30 6z"/>
<path d="M5410 4081 c0 -6 4 -13 10 -16 6 -3 7 1 4 9 -7 18 -14 21 -14 7z"/>
<path d="M5440 4041 c0 -6 5 -11 11 -11 5 0 7 -4 4 -10 -3 -5 -1 -10 5 -10 15
0 9 32 -7 38 -7 2 -13 -1 -13 -7z"/>
<path d="M5697 3952 l-59 -59 43 -61 c43 -64 66 -88 75 -80 2 3 3 62 2 132
l-3 127 -58 -59z"/>
<path d="M4660 3930 c0 -5 5 -10 10 -10 6 0 10 5 10 10 0 6 -4 10 -10 10 -5 0
-10 -4 -10 -10z"/>
<path d="M4590 3915 c0 -8 5 -15 10 -15 6 0 10 7 10 15 0 8 -4 15 -10 15 -5 0
-10 -7 -10 -15z"/>
<path d="M1133 3873 c-7 -2 -13 -15 -13 -27 0 -12 -5 -27 -12 -34 -6 -6 -9
-15 -5 -18 4 -4 18 5 31 19 20 21 22 27 9 27 -14 0 -14 2 2 20 18 19 13 24
-12 13z"/>
<path d="M4910 3631 c0 -5 7 -11 14 -14 10 -4 13 -1 9 9 -6 15 -23 19 -23 5z"/>
<path d="M840 3620 c0 -5 5 -10 10 -10 6 0 10 5 10 10 0 6 -4 10 -10 10 -5 0
-10 -4 -10 -10z"/>
<path d="M5080 3531 c0 -6 4 -13 10 -16 6 -3 7 1 4 9 -7 18 -14 21 -14 7z"/>
<path d="M5212 3508 c6 -18 28 -21 28 -4 0 9 -7 16 -16 16 -9 0 -14 -5 -12
-12z"/>
<path d="M5195 3420 c3 -5 8 -10 11 -10 2 0 4 5 4 10 0 6 -5 10 -11 10 -5 0
-7 -4 -4 -10z"/>
<path d="M4981 3084 c0 -11 3 -14 6 -6 3 7 2 16 -1 19 -3 4 -6 -2 -5 -13z"/>
<path d="M4987 3044 c-4 -4 -7 -14 -7 -23 0 -11 3 -12 11 -4 6 6 10 16 7 23
-2 6 -7 8 -11 4z"/>
<path d="M5396 2993 c20 -15 36 -13 42 5 2 8 -7 12 -28 10 -28 -2 -30 -4 -14
-15z"/>
<path d="M5515 2730 c3 -5 11 -10 16 -10 6 0 7 5 4 10 -3 6 -11 10 -16 10 -6
0 -7 -4 -4 -10z"/>
<path d="M5505 2470 c-7 -12 2 -30 16 -30 12 0 12 27 0 35 -5 3 -12 1 -16 -5z"/>
<path d="M5557 2421 c-3 -11 -2 -22 1 -25 7 -8 31 27 26 36 -9 14 -22 8 -27
-11z"/>
<path d="M5745 2031 c-3 -10 -1 -29 4 -42 9 -21 10 -19 10 19 1 45 -4 54 -14
23z"/>
<path d="M5747 1831 c-2 -11 -1 -35 3 -53 7 -30 8 -28 9 20 1 54 -3 66 -12 33z"/>
<path d="M5335 1480 c-3 -5 -1 -10 4 -10 6 0 11 5 11 10 0 6 -2 10 -4 10 -3 0
-8 -4 -11 -10z"/>
<path d="M5322 1124 c1 -9 9 -19 16 -22 9 -3 13 2 10 14 -1 9 -9 19 -16 22 -9
3 -13 -2 -10 -14z"/>
<path d="M3717 969 c7 -7 15 -10 18 -7 3 3 -2 9 -12 12 -14 6 -15 5 -6 -5z"/>
<path d="M3566 952 c-2 -4 4 -25 13 -46 l18 -38 7 36 c4 20 4 41 1 46 -7 12
-32 13 -39 2z"/>
<path d="M5235 920 c-16 -7 -17 -9 -3 -9 9 -1 20 4 23 9 7 11 7 11 -20 0z"/>
<path d="M5154 891 c0 -11 5 -17 14 -14 14 6 12 25 -4 30 -5 2 -10 -5 -10 -16z"/>
<path d="M3373 823 c-13 -2 -23 -10 -23 -17 0 -19 21 -35 37 -29 12 5 12 7 1
15 -9 6 -6 7 9 3 25 -7 42 13 22 26 -8 5 -16 8 -19 7 -3 0 -15 -3 -27 -5z"/>
<path d="M5367 799 c-9 -6 -15 -15 -11 -20 3 -6 12 -5 22 3 12 10 16 10 19 0
6 -16 23 -6 23 14 0 16 -27 18 -53 3z"/>
<path d="M3516 755 c-4 -16 -9 -36 -12 -42 -5 -17 37 -17 61 1 24 17 13 50
-14 41 -14 -4 -21 0 -24 12 -3 13 -6 10 -11 -12z"/>
<path d="M3453 663 c10 -2 17 -10 16 -16 -4 -34 2 -46 18 -40 11 4 12 8 5 11
-7 2 -12 15 -12 28 0 19 -5 24 -22 23 -18 -1 -19 -2 -5 -6z"/>
<path d="M3460 570 c-12 -8 -10 -10 8 -10 13 0 20 4 17 10 -7 12 -6 12 -25 0z"/>
<path d="M3800 10 c0 -5 5 -10 10 -10 6 0 10 5 10 10 0 6 -4 10 -10 10 -5 0
-10 -4 -10 -10z"/>
</g>
</svg>
