<svg width="40" height="36" viewBox="0 0 40 36" fill="none" xmlns="http://www.w3.org/2000/svg">
<path id="Union" fill-rule="evenodd" clip-rule="evenodd" d="M13.2188 8L18.667 3.9834L17.5046 2.40679C17.1769 1.96225 16.5508 1.86756 16.1063 2.19529L8.23278 8H13.2188ZM4.90857 8H4.99506C2.23591 8.00267 0 10.2402 0 13V31C0 33.7614 2.23858 36 5 36H30C32.7614 36 35 33.7614 35 31V28C37.7614 28 40 25.7614 40 23C40 20.2386 37.7614 18 35 18V13C35 10.2402 32.7641 8.00267 30.0049 8H30.3693C30.3373 7.95077 30.3036 7.90217 30.2683 7.85428L26.1144 2.21997C25.1312 0.886367 23.2531 0.6023 21.9195 1.58549L20.2768 2.79658L19.1144 1.21997C18.1312 -0.113633 16.2531 -0.3977 14.9195 0.585491L5.21997 7.7364C5.10884 7.81833 5.005 7.90648 4.90857 8ZM33 18V13C33 11.3431 31.6569 10 30 10H5C3.34315 10 2 11.3431 2 13V31C2 32.6569 3.34315 34 5 34H30C31.6569 34 33 32.6569 33 31V28H31C28.2386 28 26 25.7614 26 23C26 20.2386 28.2386 18 31 18H33ZM24.5046 3.40679L27.8909 8H16.5892L18.8794 6.31152L22 4L22.0073 4.0055L23.1063 3.19529C23.5508 2.86756 24.1769 2.96225 24.5046 3.40679ZM28 23C28 21.3431 29.3431 20 31 20H35C36.6569 20 38 21.3431 38 23C38 24.6569 36.6569 26 35 26H31C29.3431 26 28 24.6569 28 23Z" fill="white"/>
</svg>
